<svg width="98" height="40" viewBox="0 0 98 40" fill="none" xmlns="http://www.w3.org/2000/svg">
<path fill-rule="evenodd" clip-rule="evenodd" d="M17.0872 28.7545C16.7275 29.3083 16.5183 29.9691 16.5183 30.6782C16.5183 31.6551 16.9144 32.5393 17.5546 33.1795C18.175 33.7998 19.0243 34.1904 19.9648 34.215C19.9949 34.215 20.0258 34.215 20.0559 34.215C20.086 34.215 20.1169 34.215 20.147 34.215C21.482 34.1809 22.6317 33.4084 23.2053 32.2905V32.2889L23.5927 31.6234L28.8655 22.5468L29.7718 20.9876L32.4387 16.397L34.4939 12.8594L35.4312 11.2463C35.7909 10.6933 36.0001 10.0325 36.0001 9.32261C36.0001 8.3457 35.6039 7.4615 34.9638 6.82132C34.3236 6.18115 33.4394 5.785 32.4625 5.785C31.4856 5.785 30.6014 6.18115 29.9612 6.82132C29.7013 7.0812 29.4819 7.38148 29.3131 7.71107L28.3774 9.32261L17.088 28.7545H17.0872Z" fill="url(#paint0_linear_144_71420)"/>
<path fill-rule="evenodd" clip-rule="evenodd" d="M22.9129 28.7545C23.2726 29.3083 23.4818 29.9691 23.4818 30.6782C23.4818 31.6551 23.0856 32.5393 22.4455 33.1795C21.8251 33.7998 20.9758 34.1904 20.0353 34.215C20.0052 34.215 19.9743 34.215 19.9442 34.215C19.9141 34.215 19.8832 34.215 19.8531 34.215C18.5181 34.1809 17.3684 33.4084 16.7948 32.2905V32.2889L16.4074 31.6234L11.1346 22.5468L10.2282 20.9876L7.56138 16.397L5.50616 12.8594L4.56887 11.2463C4.20917 10.6933 4 10.0325 4 9.32261C4 8.3457 4.39615 7.4615 5.03632 6.82132C5.6765 6.18115 6.5607 5.785 7.53761 5.785C8.51451 5.785 9.39871 6.18115 10.0389 6.82132C10.2988 7.0812 10.5182 7.38148 10.687 7.71107L11.6227 9.32261L22.9121 28.7545H22.9129Z" fill="url(#paint1_linear_144_71420)"/>
<path fill-rule="evenodd" clip-rule="evenodd" d="M92.9005 11.9602H91.3159V10.3756C91.3159 9.8503 90.8904 9.42484 90.3652 9.42484C89.8399 9.42484 89.4144 9.8503 89.4144 10.3756V11.9602H87.8298C87.3045 11.9602 86.879 12.3856 86.879 12.9109C86.879 13.4362 87.3045 13.8617 87.8298 13.8617H89.4144V15.4463C89.4144 15.9716 89.8399 16.3971 90.3652 16.3971C90.8904 16.3971 91.3159 15.9716 91.3159 15.4463V13.8617H92.9005C93.4258 13.8617 93.8513 13.4362 93.8513 12.9109C93.8513 12.3856 93.4258 11.9602 92.9005 11.9602Z" fill="url(#paint2_linear_144_71420)"/>
<path d="M56.9287 12.9149L51.7344 27.0772H48.2847L43.0904 12.9149H46.1336L50.0293 24.1758L53.9045 12.9149H56.9279H56.9287Z" fill="#160C26"/>
<path d="M74.0732 12.9149V27.0772H71.2328V17.866L67.4385 27.0772H65.2882L61.4741 17.866V27.0772H58.6337V12.9149H61.8599L66.3641 23.4453L70.8683 12.9149H74.0739H74.0732Z" fill="#160C26"/>
<path d="M79.0955 26.712C78.304 26.3736 77.6781 25.8872 77.2186 25.251C76.7583 24.6155 76.5222 23.8644 76.5087 22.9993H79.5519C79.5923 23.5808 79.7983 24.0411 80.1707 24.3786C80.5423 24.717 81.0533 24.8857 81.7022 24.8857C82.3511 24.8857 82.8859 24.7273 83.2646 24.4088C83.6433 24.091 83.8327 23.6751 83.8327 23.1609C83.8327 22.7418 83.7043 22.3971 83.4468 22.1261C83.1893 21.856 82.8685 21.6428 82.4834 21.4868C82.0976 21.3315 81.5667 21.1587 80.8909 20.9694C79.971 20.6992 79.2239 20.4314 78.6487 20.1676C78.0735 19.9038 77.5799 19.5052 77.1679 18.9704C76.7551 18.4364 76.5491 17.7226 76.5491 16.8296C76.5491 15.9914 76.7591 15.2609 77.1782 14.6381C77.5973 14.0162 78.186 13.5392 78.9434 13.208C79.7009 12.8769 80.5668 12.7113 81.5406 12.7113C83.0016 12.7113 84.1884 13.0662 85.1012 13.7761C86.0139 14.486 86.5178 15.4772 86.6129 16.7488H83.488C83.4611 16.2616 83.2551 15.8599 82.8693 15.5414C82.4834 15.2237 81.9732 15.0644 81.3377 15.0644C80.7831 15.0644 80.3402 15.2062 80.0091 15.4907C79.6771 15.7743 79.5123 16.1871 79.5123 16.7282C79.5123 17.1069 79.6375 17.4215 79.8878 17.6718C80.1382 17.9222 80.4488 18.125 80.8212 18.2803C81.1928 18.4356 81.7173 18.6155 82.3939 18.8183C83.3137 19.0893 84.064 19.3594 84.6456 19.6296C85.2271 19.9006 85.7279 20.3062 86.147 20.8466C86.5661 21.3877 86.7761 22.0976 86.7761 22.9771C86.7761 23.7345 86.5796 24.4381 86.1874 25.087C85.7952 25.7358 85.22 26.2532 84.4626 26.6391C83.7051 27.0249 82.8051 27.2174 81.764 27.2174C80.7768 27.2174 79.887 27.0487 79.0955 26.7104V26.712Z" fill="#160C26"/>
<defs>
<linearGradient id="paint0_linear_144_71420" x1="36.0001" y1="20.0004" x2="16.5183" y2="20.0004" gradientUnits="userSpaceOnUse">
<stop stop-color="#F9AC12"/>
<stop offset="1" stop-color="#FFC556"/>
</linearGradient>
<linearGradient id="paint1_linear_144_71420" x1="4" y1="20.0004" x2="23.4818" y2="20.0004" gradientUnits="userSpaceOnUse">
<stop stop-color="#A80689"/>
<stop offset="0.41" stop-color="#AA068B"/>
<stop offset="0.66" stop-color="#B20692"/>
<stop offset="0.87" stop-color="#C1069E"/>
<stop offset="1" stop-color="#CF07AA"/>
</linearGradient>
<linearGradient id="paint2_linear_144_71420" x1="86.879" y1="12.9109" x2="93.8513" y2="12.9109" gradientUnits="userSpaceOnUse">
<stop stop-color="#A80689"/>
<stop offset="0.41" stop-color="#AA068B"/>
<stop offset="0.66" stop-color="#B20692"/>
<stop offset="0.87" stop-color="#C1069E"/>
<stop offset="1" stop-color="#CF07AA"/>
</linearGradient>
</defs>
</svg>
