<svg width="360" height="308" viewBox="0 0 360 308" fill="none" xmlns="http://www.w3.org/2000/svg">
<mask id="mask0_1379_4862" style="mask-type:luminance" maskUnits="userSpaceOnUse" x="-13" y="0" width="373" height="308">
<path d="M-12.8826 238.012C-12.8826 238.012 114.245 185.688 145.58 95.8416C176.907 6.00444 304.257 -28.8841 360 26.859V307.61H-12.8826" fill="white"/>
</mask>
<g mask="url(#mask0_1379_4862)">
<path d="M687.879 -203.827H30.6656V191.312H687.879V-203.827Z" fill="url(#paint0_linear_1379_4862)"/>
<path d="M369.142 165.654C365.919 154.959 355.884 148.746 345.341 150.094C345.359 149.496 345.341 148.897 345.296 148.29C345.109 145.844 344.404 143.594 343.306 141.63C347.136 137.488 349.457 131.882 349.305 125.882C349.046 115.991 342.145 108.286 333.119 106.929C329.459 95.3058 318.577 87.5032 305.935 88.5924C304.846 88.6816 303.784 88.8512 302.73 89.0655C301.704 80.7719 296.535 74.112 289.473 71.1213C291.999 67.9074 293.481 63.8186 293.365 59.4798C293.187 52.695 289.152 47.1778 283.483 44.9727C282.519 36.4112 275.323 30.2424 266.762 30.9834C263.94 31.2244 261.298 32.1886 259.012 33.6884C258.646 33.376 258.263 33.0902 257.87 32.8135C259.807 27.9926 259.352 22.3951 256.174 18.1814C251.415 11.8518 242.381 11.0037 235.98 16.2888C235.846 16.3959 235.721 16.5119 235.596 16.6191C234.873 13.7087 233.587 10.9233 231.721 8.43256C225.222 -0.218159 213.759 -2.5125 204.126 2.17442C206.439 -3.79806 205.823 -10.6633 201.912 -15.8591C197.6 -21.5905 190.476 -23.7242 183.843 -21.9387C184.066 -25.2061 183.754 -28.4736 182.924 -31.625L123.931 72.3444L253.254 244.466L295.937 209.211C297.052 209.836 298.213 210.372 299.418 210.827C299.418 211.577 299.49 212.327 299.677 213.077C300.856 217.835 305.605 220.487 310.283 218.987C313.72 217.889 316.157 214.854 316.738 211.434C317.005 211.354 317.264 211.292 317.532 211.202C325.567 208.631 331.932 202.837 335.592 195.651C340.922 198.391 347.394 198.918 353.679 196.561C365.973 191.964 372.891 178.126 369.133 165.654H369.142Z" fill="url(#paint1_linear_1379_4862)"/>
<g opacity="0.21">
<path d="M561.663 7.93295C558.511 7.43301 555.208 7.59371 551.932 8.52217C547.406 9.80772 543.585 12.3788 540.755 15.7177C538.826 14.6196 536.737 13.9769 534.612 13.7715C533.354 9.51312 530.845 5.57611 527.131 2.55862C517.365 -5.36897 503.027 -3.88701 495.099 5.87964C489.85 12.3431 488.734 20.8153 491.412 28.1091C482.583 27.5199 474.048 32.7067 470.781 41.411C469.379 45.1426 469.138 49.0261 469.861 52.6596C467.969 54.4362 466.38 56.552 465.175 58.9445C459.604 59.3552 454.462 61.8102 450.65 65.6758C438.589 59.0873 423.448 63.435 416.734 75.4604C414.092 80.1919 413.154 85.4055 413.708 90.4139C408.539 92.61 404.316 96.2346 401.37 100.689C397.022 95.6811 390.023 93.351 383.229 95.2793C377.06 97.0291 372.597 101.85 371.025 107.608C365.946 98.77 355.331 94.1545 345.073 97.0648C342.118 97.904 339.476 99.2878 337.208 101.073C337.172 100.921 337.137 100.77 337.092 100.618C334.967 93.1189 327.156 88.7533 319.657 90.887C314.657 92.3065 311.051 96.2524 309.837 100.948C309.354 100.948 308.881 100.948 308.399 100.975C307.417 98.5914 305.837 96.4042 303.686 94.6633C297.177 89.3783 287.795 90.0389 282.072 95.94C276.207 94.458 269.752 96.3774 265.69 101.377C263.092 104.573 261.932 108.465 262.119 112.268C254.674 110.617 246.648 112.768 241.024 118.428C240.301 117.687 239.533 116.973 238.702 116.304C229.097 108.501 215.786 108.349 206.108 115.063C198.02 111.099 187.986 113.072 182.067 120.366C178.478 124.785 177.112 130.284 177.826 135.515C175.808 136.381 173.943 137.685 172.371 139.417C171.987 139.845 171.63 140.292 171.291 140.747C163.533 133.908 151.829 133.034 143.036 139.292C132.787 146.586 130.403 160.807 137.697 171.047C141.429 176.287 146.973 179.465 152.865 180.349C151.686 187.777 153.49 195.651 158.507 202.016C158.668 202.222 158.846 202.427 159.016 202.632C157.507 205.525 157.73 209.149 159.882 211.872C162.801 215.577 168.175 216.211 171.88 213.292C172.461 212.836 172.961 212.31 173.389 211.738C174.621 212.06 175.871 212.301 177.139 212.443L191.342 262.518L484.386 179.403C493.091 182.358 503.072 179.831 509.258 172.35L561.654 157.486V7.92404L561.663 7.93295ZM302.257 119.562C302.213 119.401 302.159 119.232 302.105 119.071C302.32 119.062 302.525 119.044 302.739 119.026C302.579 119.196 302.418 119.366 302.266 119.553L302.257 119.562ZM311.667 115.384C312.095 115.027 312.506 114.643 312.908 114.232C312.979 114.25 313.042 114.268 313.113 114.286C313.158 114.714 313.22 115.143 313.291 115.571C312.756 115.464 312.22 115.411 311.676 115.384H311.667Z" fill="url(#paint2_linear_1379_4862)"/>
</g>
<path d="M420.984 288.603L561.663 268.525V116.946C559.538 113.187 556.342 109.982 552.208 107.876C542.567 102.974 531.086 105.59 524.435 113.545C511.115 111.009 497.18 117.392 490.725 130.087C490.171 131.176 489.689 132.283 489.279 133.408C480.717 130.078 471.272 131.569 464.21 136.792C462.63 132.694 459.586 129.141 455.363 126.998C448.748 123.633 441.061 124.632 435.589 128.935C426.804 125.4 416.627 129.096 412.252 137.693C410.806 140.532 410.172 143.568 410.244 146.54C409.726 146.737 409.226 146.951 408.726 147.183C405.253 142.809 399.62 140.345 393.692 141.193C384.801 142.461 378.623 150.701 379.89 159.584C379.917 159.762 379.953 159.941 379.98 160.119C376.757 159.298 373.329 159.084 369.829 159.584C357.679 161.315 348.671 171.127 347.457 182.804C343.1 177.483 336.155 174.492 328.852 175.537C320.799 176.689 314.532 182.411 312.292 189.714C308.854 187.518 304.989 185.982 300.891 185.223C302.57 219.701 305.507 254.152 307.694 288.612H421.001L420.984 288.603ZM453.738 160.637C453.756 160.833 453.783 161.03 453.801 161.226C453.801 161.226 453.801 161.226 453.792 161.226C453.551 161.101 453.301 161.003 453.051 160.896C453.283 160.816 453.506 160.735 453.73 160.646L453.738 160.637ZM440.106 160.583C440.713 160.824 441.329 161.039 441.945 161.217C441.392 161.503 440.847 161.815 440.329 162.172C440.204 161.69 440.07 161.208 439.91 160.735C439.972 160.691 440.035 160.637 440.097 160.583H440.106Z" fill="url(#paint3_linear_1379_4862)"/>
<path d="M285.116 288.604H322.38C333.655 259.59 345.359 230.736 356.947 201.838C355.518 194.125 350.144 187.349 342.225 184.519C339.333 183.483 336.378 183.072 333.494 183.215C333.548 183.072 333.61 182.921 333.664 182.778C336.289 175.43 332.468 167.351 325.12 164.726C320.219 162.977 314.997 164.093 311.283 167.208C310.899 166.923 310.506 166.655 310.104 166.396C310.685 163.878 310.676 161.182 309.935 158.522C307.712 150.442 299.686 145.523 291.598 147.005C287.679 142.399 281.313 140.203 275.1 141.917C271.136 143.015 267.931 145.506 265.869 148.71C260.771 143.042 252.986 140.131 245.121 141.47C244.961 140.444 244.746 139.417 244.47 138.39C241.184 126.463 230.436 118.607 218.66 118.446C214.375 110.519 205.064 106.296 196.011 108.796C190.521 110.304 186.218 113.992 183.763 118.661C181.62 118.196 179.344 118.17 177.058 118.67C176.496 118.794 175.942 118.946 175.407 119.125C173.068 109.055 164.042 101.538 153.258 101.529C140.679 101.52 130.475 111.697 130.466 124.276C130.466 130.704 133.126 136.516 137.402 140.658C132.126 146.014 129.02 153.469 129.412 161.575C129.421 161.843 129.448 162.102 129.475 162.369C126.573 163.851 124.645 166.922 124.806 170.395C125.029 175.109 129.037 178.751 133.751 178.519C134.492 178.484 135.206 178.341 135.876 178.135C136.697 179.109 137.572 180.037 138.518 180.885L120.994 229.888L285.134 288.586L285.116 288.604ZM306.051 179.805C306.096 179.858 306.141 179.912 306.185 179.966C305.971 180.341 305.775 180.724 305.578 181.117C305.203 180.724 304.801 180.358 304.373 180.028C304.926 179.983 305.489 179.912 306.051 179.814V179.805ZM294.437 177.475C294.615 177.591 294.794 177.698 294.972 177.805C294.74 177.85 294.517 177.894 294.285 177.957C294.285 177.957 294.285 177.957 294.276 177.957C294.33 177.796 294.383 177.635 294.437 177.466V177.475Z" fill="url(#paint4_linear_1379_4862)"/>
<path d="M164.158 99.3682C164.158 99.2253 164.158 99.0914 164.167 98.9486C164.337 98.9932 164.497 99.0468 164.667 99.0825C164.497 99.1718 164.328 99.2611 164.167 99.3593L164.158 99.3682ZM173.764 99.2164C173.38 98.9932 172.978 98.8058 172.568 98.6362C172.996 98.4755 173.416 98.288 173.835 98.0737C173.88 98.1094 173.934 98.1362 173.978 98.1719C173.898 98.5201 173.827 98.8682 173.773 99.2164H173.764Z" fill="url(#paint5_linear_1379_4862)"/>
<g opacity="0.66">
<path d="M400.361 148.808C398.004 146.88 395.165 145.461 391.987 144.755C384.104 143.015 376.284 146.148 371.668 152.138C368.017 147.255 362.955 143.407 356.92 141.256C357.215 135.515 355.795 129.623 352.465 124.41C344.002 111.143 326.451 107.206 313.131 115.527C308.524 111.376 302.498 108.921 296.124 108.822C294.588 106.18 292.633 103.877 290.357 101.975C290.946 97.7791 290.401 93.3689 288.562 89.2086C284.25 79.4956 274.171 74.157 264.146 75.4157C266.708 66.9257 264.869 57.3376 258.45 50.3206C248.755 39.7148 232.301 38.9827 221.705 48.678C217.678 52.365 215.08 57.0162 213.929 61.962C211.527 62.337 209.179 63.2119 207.055 64.5957C203.609 60.9711 199.082 58.2928 193.833 57.1323C185.888 55.3735 177.996 57.4537 172.068 62.1406C162.846 58.1768 151.883 58.6946 142.777 64.4974C137.402 67.9256 133.43 72.7196 131.01 78.1386C130.394 77.9065 129.761 77.7011 129.1 77.5583C122.94 76.1924 116.825 79.1207 113.879 84.3432C110.638 81.3882 106.603 79.2099 102.014 78.2011C92.5062 76.0942 83.0609 79.4956 76.9992 86.2715L71.8212 209.828L391.505 271.615C392.728 230.602 396.897 189.714 400.37 148.8L400.361 148.808Z" fill="url(#paint6_linear_1379_4862)"/>
</g>
<path d="M816.97 181.295H0.213989V297.531H816.97V181.295Z" fill="#7B6266"/>
<path d="M816.97 293.398H0.213989V250.68H210.349C310.461 250.68 425.617 246.653 610.799 250.68C701.994 252.661 816.97 250.68 816.97 250.68V293.398Z" fill="#9E7C7B"/>
<path d="M836.057 106.938C815.381 110.152 791.938 111.331 764.932 108.447C722.179 103.894 680.746 78.8258 638.037 84.1109C611.674 87.3783 586.053 98.252 559.895 103.983C499.768 117.169 437.598 89.4941 377.766 102.225C329.798 112.429 269.565 154.861 170.711 162.94C85.4713 169.904 45.8155 207.069 45.8155 207.069C103.139 192.437 262.708 193.214 359.143 180.099C518.918 158.387 665.73 184.42 836.057 188.678V106.929V106.938Z" fill="url(#paint7_linear_1379_4862)"/>
<path d="M826.862 159.521C809.98 158.807 792.75 158.485 774.815 158.583C711.242 158.95 647.268 166.02 584.401 159.458C557.047 156.602 530.265 151.192 502.706 149.567C458.05 146.933 413.574 154.334 370.034 161.681C331.004 168.261 291.973 174.849 252.942 181.429C238.988 183.786 219.098 192.606 134.76 196.677C45.637 200.98 21.8631 220.415 8.11481 222.879C37.5397 228.182 99.3446 209.042 202.975 222.593C328.013 238.958 493.528 221.058 629.976 219.737C689.638 219.156 743.97 218.799 787.438 219.031C799.312 219.094 811.337 218.906 823.496 217.469C824.461 199.703 825.585 177.26 826.862 159.503V159.521Z" fill="#79BC48"/>
</g>
<g filter="url(#filter0_d_1379_4862)">
<path d="M108.995 193.696C109.549 195.267 108.719 196.981 107.156 197.526L72.5444 209.667C70.9732 210.221 69.2591 209.399 68.7056 207.828L50.931 157.147C50.3775 155.576 51.2078 153.862 52.779 153.308L87.3908 141.167C88.9531 140.613 90.6761 141.443 91.2296 143.015L109.004 193.696H108.995Z" fill="#9E5127"/>
<path d="M103.523 185.554L97.952 196.035L70.7053 205.587L53.1093 155.441L88.5871 142.997L103.523 185.554Z" fill="white"/>
<path d="M73.3122 141.711C72.223 139.568 69.7055 138.497 67.3754 139.318C65.0453 140.14 63.7509 142.541 64.2419 144.898L58.198 147.014L60.6887 154.12L81.8379 146.701L79.3471 139.595L73.3122 141.711ZM70.009 146.817C68.411 147.38 66.6612 146.541 66.0988 144.943C65.5363 143.345 66.3845 141.595 67.9735 141.032C69.5626 140.47 71.3213 141.318 71.8838 142.916C72.4462 144.514 71.607 146.264 70.009 146.826V146.817Z" fill="#FFBF00"/>
<path d="M103.523 185.554L95.2648 188.456L97.952 196.035L103.523 185.554Z" fill="#AEB7C0"/>
<path d="M78.5526 185.366C78.2312 185.482 78.0527 185.831 78.1687 186.161C78.2848 186.491 78.6419 186.652 78.9633 186.545L88.9531 183.036C89.2834 182.92 89.4531 182.563 89.337 182.242C89.2209 181.92 88.8638 181.742 88.5424 181.858L78.5526 185.366Z" fill="#AEB7C0"/>
<path d="M90.6493 181.126C90.319 181.242 90.1494 181.599 90.2565 181.92C90.3636 182.242 90.7297 182.411 91.06 182.295L97.1842 180.144C97.5056 180.028 97.6842 179.67 97.5681 179.349C97.4521 179.028 97.095 178.849 96.7736 178.965L90.6493 181.117V181.126Z" fill="#AEB7C0"/>
<path d="M79.3025 188.634C78.9722 188.75 78.8026 189.107 78.9186 189.428C79.0347 189.75 79.3918 189.928 79.7132 189.812L83.6591 188.428C83.9894 188.312 84.1591 187.955 84.043 187.634C83.927 187.312 83.5699 187.134 83.2395 187.25L79.2936 188.634H79.3025Z" fill="#AEB7C0"/>
<path d="M85.7928 186.357C85.4714 186.473 85.3018 186.83 85.4089 187.152C85.516 187.473 85.8821 187.651 86.2034 187.535L98.2734 183.304C98.5948 183.188 98.7733 182.84 98.6573 182.509C98.5412 182.179 98.1841 182.009 97.8627 182.125L85.7928 186.357Z" fill="#AEB7C0"/>
<path d="M73.7228 184.34C73.7228 184.34 72.3034 189.357 71.8391 191.035C70.9553 190.393 69.8394 189.58 69.8394 189.58C69.4644 189.303 68.9466 189.393 68.6699 189.768C68.3931 190.134 68.4824 190.651 68.8484 190.928L71.8124 193.089C72.0356 193.249 72.3212 193.294 72.5801 193.205C72.839 193.115 73.0354 192.901 73.1158 192.633L75.3298 184.795C75.4548 184.349 75.1959 183.884 74.7495 183.759C74.3121 183.634 73.8478 183.893 73.7228 184.34Z" fill="#AEB7C0"/>
<path d="M74.1781 172.903C73.8568 173.019 73.6782 173.376 73.7943 173.697C73.9103 174.019 74.2674 174.197 74.5888 174.081L84.5786 170.573C84.909 170.457 85.0786 170.1 84.9625 169.778C84.8465 169.457 84.4894 169.278 84.168 169.394L74.1781 172.903Z" fill="#AEB7C0"/>
<path d="M86.2749 168.663C85.9445 168.779 85.7749 169.136 85.8821 169.457C85.9892 169.779 86.3552 169.957 86.6855 169.841L92.8098 167.69C93.1312 167.574 93.3097 167.216 93.1937 166.895C93.0776 166.574 92.7205 166.395 92.3991 166.511L86.2749 168.663Z" fill="#AEB7C0"/>
<path d="M74.9281 176.18C74.5977 176.296 74.4281 176.653 74.5442 176.974C74.6602 177.295 75.0173 177.474 75.3387 177.358L79.2847 175.974C79.615 175.858 79.7846 175.501 79.6685 175.18C79.5525 174.858 79.1954 174.68 78.8651 174.796L74.9191 176.18H74.9281Z" fill="#AEB7C0"/>
<path d="M81.4183 173.903C81.0969 174.019 80.9184 174.367 81.0344 174.697C81.1505 175.028 81.5076 175.197 81.829 175.081L93.8989 170.85C94.2203 170.734 94.3989 170.385 94.2828 170.055C94.1667 169.725 93.8096 169.555 93.4883 169.671L81.4183 173.903Z" fill="#AEB7C0"/>
<path d="M69.3573 171.886C69.3573 171.886 67.9378 176.903 67.4736 178.581C66.5898 177.938 65.4739 177.126 65.4739 177.126C65.0989 176.849 64.5811 176.939 64.3044 177.305C64.0365 177.679 64.1169 178.197 64.4918 178.474L67.4558 180.634C67.6789 180.795 67.9646 180.84 68.2146 180.751C68.4735 180.661 68.6699 180.456 68.7502 180.188L70.9643 172.341C71.0892 171.894 70.8303 171.439 70.3929 171.314C69.9554 171.189 69.4912 171.448 69.3662 171.886H69.3573Z" fill="#AEB7C0"/>
<path d="M69.9911 160.977C69.6698 161.093 69.4912 161.45 69.6073 161.771C69.7233 162.093 70.0804 162.271 70.4018 162.155L80.3916 158.647C80.722 158.53 80.8916 158.182 80.7755 157.852C80.6595 157.522 80.3113 157.361 79.981 157.477L69.9911 160.985V160.977Z" fill="#AEB7C0"/>
<path d="M82.0968 156.736C81.7665 156.852 81.5969 157.209 81.704 157.53C81.8111 157.852 82.1772 158.03 82.5075 157.914L88.6317 155.763C88.9531 155.647 89.1317 155.298 89.0156 154.968C88.8995 154.638 88.5424 154.477 88.2211 154.584L82.0968 156.736Z" fill="#AEB7C0"/>
<path d="M70.7411 164.244C70.4107 164.36 70.2411 164.717 70.3572 165.047C70.4732 165.378 70.8214 165.539 71.1517 165.422L75.0977 164.039C75.428 163.923 75.5976 163.566 75.4905 163.244C75.3833 162.923 75.0173 162.744 74.687 162.86L70.7411 164.244Z" fill="#AEB7C0"/>
<path d="M77.2313 161.968C76.9099 162.084 76.7403 162.441 76.8474 162.771C76.9546 163.101 77.3206 163.262 77.642 163.155L89.7119 158.923C90.0333 158.807 90.2119 158.459 90.0958 158.129C89.9797 157.799 89.6227 157.629 89.3013 157.745L77.2313 161.977V161.968Z" fill="#AEB7C0"/>
<path d="M65.1703 159.95C65.1703 159.95 63.7509 164.967 63.2866 166.646C62.4028 166.003 61.2869 165.19 61.2869 165.19C60.9119 164.914 60.3941 165.003 60.1174 165.378C59.8406 165.753 59.9299 166.271 60.3048 166.538L63.2688 168.699C63.492 168.869 63.7776 168.904 64.0365 168.815C64.2954 168.726 64.4918 168.511 64.5722 168.253L66.7862 160.405C66.9112 159.959 66.6523 159.504 66.2148 159.379C65.7774 159.254 65.3132 159.513 65.1882 159.95H65.1703Z" fill="#AEB7C0"/>
</g>
<g filter="url(#filter1_d_1379_4862)">
<path d="M141 156.852L124.824 162.744C121.467 163.967 117.771 162.146 116.7 158.736L107.451 129.409C106.406 126.088 108.156 122.526 111.432 121.33L124.609 116.527C127.886 115.331 131.519 116.929 132.858 120.151L144.643 148.559C146.009 151.853 144.357 155.629 141 156.852Z" fill="#424266"/>
<path d="M124.181 160.986C123.047 161.396 121.824 161.334 120.735 160.798C119.646 160.262 118.851 159.334 118.485 158.182L109.236 128.856C108.486 126.481 109.736 123.954 112.066 123.106L125.243 118.303C127.582 117.455 130.153 118.589 131.109 120.883L142.893 149.291C143.357 150.406 143.348 151.63 142.857 152.737C142.375 153.844 141.473 154.683 140.34 155.093L124.163 160.986H124.181Z" fill="#2F2F47"/>
<path d="M129.305 136.863L120.922 139.917C119.387 140.479 117.691 139.595 117.28 138.006L115.289 130.346C114.932 128.963 115.682 127.525 117.03 127.034L124.002 124.499C125.35 124.008 126.85 124.624 127.466 125.918L130.868 133.06C131.573 134.542 130.85 136.301 129.314 136.863H129.305Z" fill="#424266"/>
<path d="M120.896 143.8L131.814 139.818C133.376 139.247 135.072 140.166 135.465 141.773L137.322 149.478C137.652 150.853 136.903 152.254 135.572 152.736L126.323 156.102C124.993 156.584 123.511 155.995 122.886 154.727L119.351 147.63C118.61 146.148 119.333 144.345 120.887 143.782L120.896 143.8Z" fill="#424266"/>
<path d="M105.049 139.952L95.7112 171.547L92.2741 173.502L91.4438 173.984L90.7118 174.395L88.346 167.699L88.9263 165.735L91.7384 166.565L90.4886 160.441L91.4438 157.227L93.3365 157.789L93.9435 155.718L92.0509 155.156L92.9972 151.951L96.0326 152.844L96.8092 150.192L94.6845 146.273L97.2288 137.64L105.049 139.952Z" fill="#AEB7C0"/>
<path d="M101.934 140.819L92.2652 173.502L91.4349 173.984L101.3 140.631C101.344 140.47 101.532 140.363 101.71 140.417C101.871 140.461 101.978 140.649 101.925 140.81L101.934 140.819Z" fill="#969FA8"/>
<path d="M115.691 128.623C116.45 125.186 114.745 121.74 111.718 120.196C111.307 119.999 110.888 119.83 110.433 119.696L104.719 118.008L103.335 117.598L103.282 117.58C99.4607 116.446 95.4166 118.464 94.015 122.204L89.4619 134.417C88.9977 135.667 89.6941 137.069 90.9975 137.452L109.933 143.05C111.227 143.434 112.584 142.639 112.87 141.336L115.691 128.614V128.623Z" fill="#424266"/>
<path d="M115.691 128.623C116.45 125.186 114.745 121.74 111.718 120.196C111.307 120 110.888 119.83 110.433 119.696L109.227 119.339C109.674 119.473 110.102 119.634 110.513 119.839C113.548 121.383 115.253 124.829 114.486 128.266L111.665 140.988C111.379 142.291 110.022 143.086 108.727 142.702L109.933 143.059C111.227 143.443 112.584 142.649 112.87 141.345L115.691 128.623Z" fill="#2F2F47"/>
<path d="M107.719 124.499C107.353 125.722 106.076 126.418 104.844 126.061C103.612 125.704 102.907 124.41 103.264 123.187C103.371 122.829 103.567 122.49 103.817 122.249C104.148 121.874 104.585 121.633 105.076 121.562C105.433 121.49 105.799 121.499 106.156 121.606C106.808 121.794 107.317 122.258 107.576 122.829C107.799 123.267 107.861 123.794 107.745 124.311C107.745 124.374 107.728 124.445 107.71 124.499H107.719Z" fill="white"/>
<path d="M113.655 115.562C113.138 117.33 112.477 118.901 111.718 120.205C110.522 122.321 109.129 123.794 107.754 124.32C107.112 124.561 106.496 124.615 105.897 124.436C104.96 124.16 104.237 123.106 103.817 122.258C104.148 121.883 104.585 121.642 105.076 121.571C105.424 122.383 105.969 122.99 106.29 123.088C106.647 123.195 107.103 123.115 107.576 122.838C108.442 122.347 109.451 121.276 110.37 119.687C111.111 118.455 111.772 116.928 112.298 115.161C113.852 109.92 113.147 105.733 111.557 105.26C109.95 104.787 107.103 107.921 105.558 113.161C105.067 114.821 104.773 116.491 104.71 118.009L103.326 117.598C103.407 116.054 103.719 114.402 104.21 112.768C105.933 106.93 109.263 103.109 111.959 103.912C114.655 104.716 115.378 109.724 113.646 115.562H113.655Z" fill="#AEB7C0"/>
</g>
<path d="M182.209 280.113C277.94 280.113 355.545 275.013 355.545 268.722C355.545 262.431 277.94 257.331 182.209 257.331C86.4787 257.331 8.87366 262.431 8.87366 268.722C8.87366 275.013 86.4787 280.113 182.209 280.113Z" fill="url(#paint8_radial_1379_4862)"/>
<path d="M119.797 200.73L151.544 149.433C153.677 145.978 157.454 143.88 161.507 143.88H260.78C265.547 143.88 269.842 146.773 271.636 151.192L291.732 200.722H119.797V200.73Z" fill="url(#paint9_linear_1379_4862)"/>
<path d="M111.843 245.769C111.843 232.557 103.023 221.844 92.1402 221.844C81.2576 221.844 72.4373 232.557 72.4373 245.769C72.4373 258.982 81.2576 269.695 92.1402 269.695H102.585L98.5501 268.374C106.281 265.142 111.843 256.25 111.843 245.769Z" fill="url(#paint10_linear_1379_4862)"/>
<path d="M102.594 269.695C113.476 269.695 122.297 258.983 122.297 245.769C122.297 232.556 113.476 221.844 102.594 221.844C91.7126 221.844 82.8913 232.556 82.8913 245.769C82.8913 258.983 91.7126 269.695 102.594 269.695Z" fill="url(#paint11_linear_1379_4862)"/>
<path d="M102.594 259.768C108.964 259.768 114.129 253.501 114.129 245.77C114.129 238.039 108.964 231.771 102.594 231.771C96.224 231.771 91.06 238.039 91.06 245.77C91.06 253.501 96.224 259.768 102.594 259.768Z" fill="url(#paint12_linear_1379_4862)"/>
<path d="M289.455 245.769C289.455 232.557 280.635 221.844 269.752 221.844C258.87 221.844 250.049 232.557 250.049 245.769C250.049 258.982 258.87 269.695 269.752 269.695H280.197L276.162 268.374C283.893 265.142 289.455 256.25 289.455 245.769Z" fill="url(#paint13_linear_1379_4862)"/>
<path d="M207.251 245.769C207.251 232.557 198.431 221.844 187.548 221.844C176.665 221.844 167.845 232.557 167.845 245.769C167.845 258.982 176.665 269.695 187.548 269.695H197.993L193.958 268.374C201.689 265.142 207.251 256.25 207.251 245.769Z" fill="url(#paint14_linear_1379_4862)"/>
<path d="M219.705 215.086V233.798C219.705 241.19 213.732 247.18 206.34 247.18H72.1069C64.5543 247.18 58.439 241.065 58.439 233.512C58.439 224.46 62.1082 216.264 68.036 210.345C68.1521 210.229 68.2771 210.104 68.3931 209.988C71.8748 206.623 76.0886 204.016 80.7845 202.436C84.0519 201.32 87.5872 200.73 91.2296 200.73H205.358C213.295 200.73 219.714 207.176 219.714 215.086H219.705Z" fill="url(#paint15_linear_1379_4862)"/>
<path d="M91.051 206.435C91.051 208.64 89.2745 210.435 87.0515 210.435H70.1875C69.5448 210.435 68.9288 210.265 68.3842 209.988C71.8659 206.623 76.0797 204.016 80.7755 202.436H87.0515C89.2745 202.436 91.051 204.212 91.051 206.435Z" fill="url(#paint16_linear_1379_4862)"/>
<path d="M175.737 210.444H152.311C150.097 210.444 148.303 208.649 148.303 206.435C148.303 204.221 150.097 202.427 152.311 202.427H175.737C177.951 202.427 179.745 204.221 179.745 206.435C179.745 208.649 177.951 210.444 175.737 210.444Z" fill="url(#paint17_linear_1379_4862)"/>
<path d="M300.909 247.171H166.658C159.123 247.171 153.008 241.056 153.008 233.521C153.008 215.416 167.684 200.73 185.798 200.73H299.927C307.855 200.73 314.282 207.158 314.282 215.086V233.798C314.282 241.181 308.301 247.162 300.918 247.162L300.909 247.171Z" fill="url(#paint18_linear_1379_4862)"/>
<path d="M315.755 248.653H293.589C289.161 248.653 285.572 245.064 285.572 240.636C285.572 236.208 289.161 232.619 293.589 232.619H315.755C320.183 232.619 323.772 236.208 323.772 240.636C323.772 245.064 320.183 248.653 315.755 248.653Z" fill="url(#paint19_linear_1379_4862)"/>
<path d="M198.002 269.695C208.884 269.695 217.705 258.983 217.705 245.769C217.705 232.556 208.884 221.844 198.002 221.844C187.121 221.844 178.299 232.556 178.299 245.769C178.299 258.983 187.121 269.695 198.002 269.695Z" fill="url(#paint20_linear_1379_4862)"/>
<path d="M209.536 245.77C209.536 253.501 204.376 259.768 198.002 259.768C191.628 259.768 186.468 253.501 186.468 245.77C186.468 238.039 191.628 231.771 198.002 231.771C204.376 231.771 209.536 238.039 209.536 245.77Z" fill="url(#paint21_linear_1379_4862)"/>
<path d="M280.197 269.695C291.079 269.695 299.9 258.983 299.9 245.769C299.9 232.556 291.079 221.844 280.197 221.844C269.316 221.844 260.494 232.556 260.494 245.769C260.494 258.983 269.316 269.695 280.197 269.695Z" fill="url(#paint22_linear_1379_4862)"/>
<path d="M280.197 259.768C286.568 259.768 291.732 253.501 291.732 245.77C291.732 238.039 286.568 231.771 280.197 231.771C273.827 231.771 268.663 238.039 268.663 245.77C268.663 253.501 273.827 259.768 280.197 259.768Z" fill="url(#paint23_linear_1379_4862)"/>
<path d="M159.828 248.653H55.9839C51.5559 248.653 47.9671 245.064 47.9671 240.636C47.9671 236.208 51.5559 232.619 55.9839 232.619H159.837C164.265 232.619 167.854 236.208 167.854 240.636C167.854 245.064 164.265 248.653 159.837 248.653H159.828Z" fill="url(#paint24_linear_1379_4862)"/>
<path d="M112.2 215.3H103.46C93.8989 215.3 86.1499 223.049 86.1499 232.61H129.511C129.511 223.049 121.762 215.3 112.2 215.3Z" fill="url(#paint25_linear_1379_4862)"/>
<path d="M219.678 151.13L207.43 170.77L198.806 184.581L192.414 194.839C192.369 194.91 192.342 194.955 192.271 195.008C192.056 195.267 191.726 195.437 191.351 195.437H133.055C132.064 195.437 131.466 194.348 131.992 193.517L132.68 192.401L147.437 168.735L159.23 149.782C159.471 149.425 159.873 149.192 160.292 149.192H218.616C219.607 149.192 220.205 150.282 219.678 151.139V151.13Z" fill="url(#paint26_linear_1379_4862)"/>
<path d="M246.237 151.361V193.24C246.237 194.445 245.264 195.418 244.059 195.418H207.653C205.974 195.418 204.93 193.57 205.805 192.124L212.768 180.545H212.795L231.034 150.228C231.436 149.585 232.15 149.183 232.909 149.183H244.068C245.273 149.183 246.246 150.156 246.246 151.361H246.237Z" fill="url(#paint27_linear_1379_4862)"/>
<path d="M278.474 195.428H250.951C249.746 195.428 248.773 194.455 248.773 193.249V151.371C248.773 150.165 249.746 149.192 250.951 149.192H261.441C262.342 149.192 263.119 149.737 263.458 150.54L269.029 164.253L276.091 181.617L280.501 192.446C281.072 193.865 280.028 195.428 278.483 195.428H278.474Z" fill="url(#paint28_linear_1379_4862)"/>
<path d="M219.678 151.13L207.43 170.77L132.671 192.401L147.428 168.735L214.893 149.192H218.616C219.607 149.192 220.205 150.282 219.678 151.139V151.13Z" fill="white"/>
<path d="M212.786 180.546L246.237 170.859V190.259L228.4 195.419H207.653C205.974 195.419 204.93 193.571 205.805 192.125L212.768 180.546H212.795H212.786Z" fill="white"/>
<path d="M276.082 181.617L248.773 189.527V170.127L269.02 164.253L276.082 181.617Z" fill="white"/>
<defs>
<filter id="filter0_d_1379_4862" x="45.8994" y="137.422" width="64.8875" height="77.2779" filterUnits="userSpaceOnUse" color-interpolation-filters="sRGB">
<feFlood flood-opacity="0" result="BackgroundImageFix"/>
<feColorMatrix in="SourceAlpha" type="matrix" values="0 0 0 0 0 0 0 0 0 0 0 0 0 0 0 0 0 0 127 0" result="hardAlpha"/>
<feOffset dx="-1.62" dy="1.62"/>
<feGaussianBlur stdDeviation="1.62"/>
<feColorMatrix type="matrix" values="0 0 0 0 0.458824 0 0 0 0 0.458824 0 0 0 0 0.458824 0 0 0 0.75 0"/>
<feBlend mode="normal" in2="BackgroundImageFix" result="effect1_dropShadow_1379_4862"/>
<feBlend mode="normal" in="SourceGraphic" in2="effect1_dropShadow_1379_4862" result="shape"/>
</filter>
<filter id="filter1_d_1379_4862" x="83.486" y="102.186" width="63.2568" height="77.0689" filterUnits="userSpaceOnUse" color-interpolation-filters="sRGB">
<feFlood flood-opacity="0" result="BackgroundImageFix"/>
<feColorMatrix in="SourceAlpha" type="matrix" values="0 0 0 0 0 0 0 0 0 0 0 0 0 0 0 0 0 0 127 0" result="hardAlpha"/>
<feOffset dx="-1.62" dy="1.62"/>
<feGaussianBlur stdDeviation="1.62"/>
<feColorMatrix type="matrix" values="0 0 0 0 0.458824 0 0 0 0 0.458824 0 0 0 0 0.458824 0 0 0 0.75 0"/>
<feBlend mode="normal" in2="BackgroundImageFix" result="effect1_dropShadow_1379_4862"/>
<feBlend mode="normal" in="SourceGraphic" in2="effect1_dropShadow_1379_4862" result="shape"/>
</filter>
<linearGradient id="paint0_linear_1379_4862" x1="361.402" y1="-178.375" x2="359.205" y2="-0.986071" gradientUnits="userSpaceOnUse">
<stop stop-color="#5DDAFD"/>
<stop offset="1" stop-color="#008AF6"/>
</linearGradient>
<linearGradient id="paint1_linear_1379_4862" x1="373.667" y1="-97.291" x2="197.699" y2="212.847" gradientUnits="userSpaceOnUse">
<stop stop-color="white"/>
<stop offset="1" stop-color="white" stop-opacity="0"/>
</linearGradient>
<linearGradient id="paint2_linear_1379_4862" x1="336.891" y1="35.7369" x2="377.863" y2="221.316" gradientUnits="userSpaceOnUse">
<stop stop-color="white"/>
<stop offset="1" stop-color="white" stop-opacity="0"/>
</linearGradient>
<linearGradient id="paint3_linear_1379_4862" x1="399.084" y1="100.884" x2="473.343" y2="313.767" gradientUnits="userSpaceOnUse">
<stop stop-color="white"/>
<stop offset="1" stop-color="white" stop-opacity="0"/>
</linearGradient>
<linearGradient id="paint4_linear_1379_4862" x1="250.951" y1="134.703" x2="207.501" y2="295.532" gradientUnits="userSpaceOnUse">
<stop stop-color="white"/>
<stop offset="1" stop-color="white" stop-opacity="0"/>
</linearGradient>
<linearGradient id="paint5_linear_1379_4862" x1="168.999" y1="98.1234" x2="169.345" y2="100.048" gradientUnits="userSpaceOnUse">
<stop stop-color="white"/>
<stop offset="1" stop-color="white" stop-opacity="0"/>
</linearGradient>
<linearGradient id="paint6_linear_1379_4862" x1="263.287" y1="46.475" x2="220.363" y2="242.356" gradientUnits="userSpaceOnUse">
<stop stop-color="white"/>
<stop offset="1" stop-color="white" stop-opacity="0"/>
</linearGradient>
<linearGradient id="paint7_linear_1379_4862" x1="440.928" y1="33.635" x2="440.928" y2="228.772" gradientUnits="userSpaceOnUse">
<stop stop-color="#68B870"/>
<stop offset="0.14" stop-color="#64B16B"/>
<stop offset="0.35" stop-color="#5A9F5F"/>
<stop offset="0.59" stop-color="#4B814C"/>
<stop offset="0.85" stop-color="#355730"/>
<stop offset="1" stop-color="#273C1F"/>
</linearGradient>
<radialGradient id="paint8_radial_1379_4862" cx="0" cy="0" r="1" gradientUnits="userSpaceOnUse" gradientTransform="translate(182.818 267.292) scale(123.515 11.2286)">
<stop stop-color="#754C29"/>
<stop offset="1" stop-color="#603913" stop-opacity="0"/>
</radialGradient>
<linearGradient id="paint9_linear_1379_4862" x1="206.046" y1="143.613" x2="205.76" y2="201.15" gradientUnits="userSpaceOnUse">
<stop stop-color="#F3DCEE"/>
<stop offset="1" stop-color="#A80689"/>
</linearGradient>
<linearGradient id="paint10_linear_1379_4862" x1="85.0696" y1="256.866" x2="138.688" y2="179.822" gradientUnits="userSpaceOnUse">
<stop stop-color="#12336D"/>
<stop offset="1" stop-color="#0059B3"/>
</linearGradient>
<linearGradient id="paint11_linear_1379_4862" x1="96.961" y1="268.481" x2="115.253" y2="194.74" gradientUnits="userSpaceOnUse">
<stop stop-color="#12336D"/>
<stop offset="1" stop-color="#0059B3"/>
</linearGradient>
<linearGradient id="paint12_linear_1379_4862" x1="98.0055" y1="269.999" x2="103.916" y2="238.762" gradientUnits="userSpaceOnUse">
<stop stop-color="#F9AC12"/>
<stop offset="1" stop-color="#FFC556"/>
</linearGradient>
<linearGradient id="paint13_linear_1379_4862" x1="262.673" y1="256.866" x2="316.291" y2="179.822" gradientUnits="userSpaceOnUse">
<stop stop-color="#12336D"/>
<stop offset="1" stop-color="#0059B3"/>
</linearGradient>
<linearGradient id="paint14_linear_1379_4862" x1="180.478" y1="256.866" x2="234.096" y2="179.822" gradientUnits="userSpaceOnUse">
<stop stop-color="#12336D"/>
<stop offset="1" stop-color="#0059B3"/>
</linearGradient>
<linearGradient id="paint15_linear_1379_4862" x1="139.527" y1="204.328" x2="139.027" y2="236.467" gradientUnits="userSpaceOnUse">
<stop stop-color="#A80689"/>
<stop offset="1" stop-color="#CB6BB9"/>
</linearGradient>
<linearGradient id="paint16_linear_1379_4862" x1="82.0968" y1="202.087" x2="48.3151" y2="294.398" gradientUnits="userSpaceOnUse">
<stop stop-color="#F4D279"/>
<stop offset="1" stop-color="#FF9843"/>
</linearGradient>
<linearGradient id="paint17_linear_1379_4862" x1="155.748" y1="229.031" x2="121.976" y2="321.35" gradientUnits="userSpaceOnUse">
<stop stop-color="#F4D279"/>
<stop offset="1" stop-color="#FF9843"/>
</linearGradient>
<linearGradient id="paint18_linear_1379_4862" x1="243.461" y1="211.247" x2="224.115" y2="251.001" gradientUnits="userSpaceOnUse">
<stop stop-color="#C353AE"/>
<stop offset="0.74" stop-color="#BA3AA2"/>
</linearGradient>
<linearGradient id="paint19_linear_1379_4862" x1="304.668" y1="240.627" x2="304.668" y2="279.551" gradientUnits="userSpaceOnUse">
<stop stop-color="white"/>
<stop offset="1" stop-color="#A80689"/>
</linearGradient>
<linearGradient id="paint20_linear_1379_4862" x1="192.369" y1="268.481" x2="210.661" y2="194.74" gradientUnits="userSpaceOnUse">
<stop stop-color="#12336D"/>
<stop offset="1" stop-color="#0059B3"/>
</linearGradient>
<linearGradient id="paint21_linear_1379_4862" x1="200.939" y1="224.031" x2="195.315" y2="265.687" gradientUnits="userSpaceOnUse">
<stop stop-color="#F9AC12"/>
<stop offset="1" stop-color="#F4D279"/>
</linearGradient>
<linearGradient id="paint22_linear_1379_4862" x1="274.564" y1="268.481" x2="292.857" y2="194.74" gradientUnits="userSpaceOnUse">
<stop stop-color="#12336D"/>
<stop offset="1" stop-color="#0059B3"/>
</linearGradient>
<linearGradient id="paint23_linear_1379_4862" x1="283.134" y1="224.031" x2="277.51" y2="265.687" gradientUnits="userSpaceOnUse">
<stop stop-color="#F9AC12"/>
<stop offset="1" stop-color="#F4D279"/>
</linearGradient>
<linearGradient id="paint24_linear_1379_4862" x1="107.906" y1="236.413" x2="107.906" y2="300.7" gradientUnits="userSpaceOnUse">
<stop stop-color="white"/>
<stop offset="1" stop-color="#A80689"/>
</linearGradient>
<linearGradient id="paint25_linear_1379_4862" x1="107.826" y1="223.959" x2="107.826" y2="267.32" gradientUnits="userSpaceOnUse">
<stop stop-color="white"/>
<stop offset="1" stop-color="#A80689"/>
</linearGradient>
<linearGradient id="paint26_linear_1379_4862" x1="175.309" y1="148.068" x2="177.415" y2="245.556" gradientUnits="userSpaceOnUse">
<stop stop-color="white"/>
<stop offset="1" stop-color="#66C8FF"/>
</linearGradient>
<linearGradient id="paint27_linear_1379_4862" x1="225.311" y1="147.041" x2="227.382" y2="242.85" gradientUnits="userSpaceOnUse">
<stop stop-color="white"/>
<stop offset="1" stop-color="#66C8FF"/>
</linearGradient>
<linearGradient id="paint28_linear_1379_4862" x1="263.699" y1="146.586" x2="265.788" y2="243.127" gradientUnits="userSpaceOnUse">
<stop stop-color="white"/>
<stop offset="1" stop-color="#66C8FF"/>
</linearGradient>
</defs>
</svg>
