<svg width="80" height="85" viewBox="0 0 80 85" fill="none" xmlns="http://www.w3.org/2000/svg">
<path d="M44.1932 43.1917C44.8967 42.4883 44.8967 41.3627 44.1932 40.6592C43.4897 39.9557 42.3501 39.9557 41.6325 40.6592C40.915 41.3627 39.7894 41.3627 39.0719 40.6592C38.3543 39.9557 37.2287 39.9557 36.5112 40.6592C35.8077 41.3627 35.8077 42.4883 36.5112 43.1917C38.7905 45.3022 42.1953 45.3022 44.1792 43.1917H44.1932Z" fill="white"/>
<path d="M47.5978 33.0618C48.6108 33.0618 49.441 33.8778 49.441 34.8908C49.441 35.9038 48.6108 36.7199 47.5978 36.7199C46.5848 36.7199 45.7547 35.9038 45.7547 34.8908C45.7547 33.8778 46.5848 33.0618 47.5978 33.0618Z" fill="white"/>
<path d="M72.895 12.5198C73.908 12.5198 74.7381 13.3358 74.7381 14.3488C74.7381 15.3618 73.908 16.1779 72.895 16.1779C71.882 16.1779 71.0519 15.3618 71.0519 14.3488C71.0519 13.3358 71.882 12.5198 72.895 12.5198Z" fill="white"/>
<path d="M67.6326 46.0056C68.6456 46.0056 69.4757 46.8217 69.4757 47.8347C69.4757 48.8477 68.6456 49.6637 67.6326 49.6637C66.6196 49.6637 65.7895 48.8477 65.7895 47.8347C65.7895 46.8217 66.6196 46.0056 67.6326 46.0056Z" fill="white"/>
<path d="M5.40263 12.5198C6.41565 12.5198 7.24575 13.3358 7.24575 14.3488C7.24575 15.3618 6.41565 16.1779 5.40263 16.1779C4.38962 16.1779 3.55951 15.3618 3.55951 14.3488C3.55951 13.3358 4.38962 12.5198 5.40263 12.5198Z" fill="white"/>
<path d="M16.0538 33.6243C17.0808 33.6243 17.8969 34.4403 17.8969 35.4533C17.8969 36.4663 17.0668 37.2824 16.0538 37.2824C15.0407 37.2824 14.2106 36.4663 14.2106 35.4533C14.2106 34.4403 15.0407 33.6243 16.0538 33.6243Z" fill="white"/>
<path d="M1.84331 58.2461C2.87039 58.2461 3.68643 59.0621 3.68643 60.0751C3.68643 61.0882 2.85632 61.9042 1.84331 61.9042C0.830291 61.9042 0.000183105 61.0882 0.000183105 60.0751C0.000183105 59.0621 0.830291 58.2461 1.84331 58.2461Z" fill="white"/>
<path d="M33.4018 33.0618C34.4148 33.0618 35.2449 33.8778 35.2449 34.8908C35.2449 35.9038 34.4148 36.7199 33.4018 36.7199C32.3888 36.7199 31.5587 35.9038 31.5587 34.8908C31.5587 33.8778 32.3888 33.0618 33.4018 33.0618Z" fill="white"/>
<path d="M32.1212 16.1779H48.1747C49.1736 16.1779 50.0178 15.3337 50.0178 14.3488C50.0178 13.364 49.1595 12.5198 48.1747 12.5198H32.1212C31.1223 12.5198 30.2781 13.364 30.2781 14.3488C30.2781 15.3337 31.1363 16.1779 32.1212 16.1779Z" fill="white"/>
<path d="M65.5084 61.6229L55.9832 57.5427C54.2808 56.8392 52.8597 55.8543 51.4387 54.7288C50.2991 53.8846 49.5956 53.0404 48.7373 51.9148C48.4559 51.4927 48.0339 51.2114 47.5977 51.2114V49.2416C49.5815 47.9753 51.2839 46.287 52.719 44.1765C54.8436 41.0812 56.2646 37.001 56.9821 32.4987C59.6835 32.358 61.808 30.1069 61.808 27.4337C61.808 24.9011 59.8242 22.65 57.4042 22.3686V21.5244C61.9487 19.2733 64.5094 16.1779 64.5094 12.6605C64.5094 9.14312 61.808 5.9071 56.9821 3.65596C47.8932 -0.705632 33.2467 -0.705632 24.017 3.65596C19.1911 5.9071 16.4897 9.14312 16.4897 12.6605C16.4897 16.1779 19.0504 19.2733 23.5949 21.5244V22.3686C21.0342 22.7907 19.1911 24.9011 19.1911 27.4337C19.1911 30.1069 21.3156 32.358 24.017 32.4987C25.0159 38.8301 27.858 45.5835 33.2467 49.1009V51.2114C32.8246 51.3521 32.5432 51.4927 32.2477 51.9148C31.2488 53.3218 30.4046 54.0253 29.2649 55.0102C27.9846 55.995 26.5636 56.8392 25.0018 57.5427L15.4767 61.6229C9.51116 64.1554 6.24701 73.4414 6.24701 79.0693V82.5867C6.24701 83.5715 7.10526 84.4157 8.09013 84.4157H73.0216C74.0205 84.4157 74.8647 83.5715 74.8647 82.5867V79.0693C74.724 73.5821 71.4598 64.1554 65.4802 61.6229H65.5084ZM44.1928 58.6683L47.0349 55.7136C47.457 56.1357 47.7384 56.5578 48.1746 56.8392L46.7535 59.3717C46.05 59.0904 45.1918 58.9497 44.1928 58.6683ZM33.9642 59.3717L32.6839 56.8392C33.106 56.4171 33.5421 56.1357 33.8235 55.7136L36.6656 58.6683C35.6666 58.9497 34.8225 59.0904 33.9642 59.3717ZM27.1404 23.3535V22.0872H53.8587V23.9162C53.5773 26.4488 51.298 28.4185 48.7373 28.4185H32.2618C29.4197 28.4185 27.1404 26.1674 27.1404 23.3535ZM57.2635 28.9813C57.4042 27.1523 57.2635 26.1674 57.2635 26.0267C58.5439 26.5895 58.5439 28.4185 57.2635 28.9813ZM20.0353 12.6605C20.0353 10.5501 22.0191 8.43964 25.5787 6.75128C33.8235 2.81178 47.3163 2.81178 55.4204 6.75128C58.966 8.43964 60.9639 10.5501 60.9639 12.6605C60.9639 14.3489 59.6835 16.0372 57.4042 17.4442V14.3489C57.4042 13.364 56.546 12.5198 55.5611 12.5198C54.5762 12.5198 53.718 13.364 53.718 14.3489V18.5698H27.1404V14.3489C27.1404 13.364 26.2822 12.5198 25.2973 12.5198C24.3124 12.5198 23.4542 13.364 23.4542 14.3489V17.4442C21.3156 16.0372 20.0493 14.3489 20.0493 12.6605H20.0353ZM23.5949 26.0267V28.9813C22.4552 28.4185 22.3145 26.5895 23.5949 26.0267ZM27.2811 30.529C28.7022 31.5139 30.4046 32.0766 32.2618 32.0766H48.5966C50.4398 32.0766 52.1563 31.5139 53.5773 30.529C52.5784 40.6591 47.1897 47.8346 40.5066 47.8346C33.8235 47.8346 28.4348 40.5184 27.2952 30.529H27.2811ZM43.9114 50.93V54.0253L40.5066 57.6834L36.8063 53.8846V50.93C39.0856 51.4927 41.6322 51.4927 43.9114 50.93ZM9.80663 79.0693C9.80663 74.0042 12.9301 66.5473 16.9118 64.8589L26.4369 60.7787C27.5766 60.2159 28.7162 59.6531 29.8418 58.9497L30.7001 60.638C23.4542 64.4368 18.769 72.1751 19.3318 80.7576H9.94732V79.0693H9.80663ZM40.4925 68.9391C46.8801 68.9391 51.8608 74.567 51.0025 80.8983H29.8277C29.1243 74.4263 34.0908 68.9391 40.4925 68.9391ZM54.5622 80.8983C55.4204 72.5972 48.878 65.4217 40.3518 65.4217C31.8256 65.4217 25.438 72.5972 26.1415 80.8983H22.5819C21.7236 70.7682 29.9684 61.9043 40.3378 61.9043C50.7071 61.9043 58.8112 70.6275 58.0937 80.8983H54.5481H54.5622ZM71.1925 80.8983H61.808C62.3708 72.3158 57.6856 64.5775 50.2991 60.7787L51.1573 59.0904C52.297 59.7938 53.4366 60.3566 54.5622 60.9194L64.0873 64.9996C68.069 66.688 71.1925 74.1449 71.1925 79.2099V80.8983Z" fill="white"/>
<path d="M14.3513 46.0056C14.3513 43.051 11.9313 40.6592 8.94852 40.6592C5.96576 40.6592 3.54578 43.051 3.54578 46.0056C3.54578 48.9603 5.96576 51.3521 8.94852 51.3521C11.9313 51.3521 14.3513 48.9603 14.3513 46.0056ZM7.24609 46.0056C7.24609 45.0208 8.10434 44.1766 9.08921 44.1766C10.0741 44.1766 10.9323 45.0208 10.9323 46.0056C10.9323 46.9905 10.0741 47.8347 9.08921 47.8347C8.10434 47.8347 7.24609 46.9905 7.24609 46.0056Z" fill="white"/>
<path d="M72.8947 28.4187C68.913 28.4187 65.7895 31.514 65.7895 35.4535C65.7895 39.393 68.913 42.4883 72.8947 42.4883C76.8764 42.4883 79.9998 39.393 79.9998 35.4535C79.9998 31.514 76.8764 28.4187 72.8947 28.4187ZM72.8947 38.9709C70.9108 38.9709 69.335 37.4233 69.335 35.4535C69.335 33.4838 70.8968 31.9361 72.8947 31.9361C74.8926 31.9361 76.4402 33.4838 76.4402 35.4535C76.4402 37.4233 74.8785 38.9709 72.8947 38.9709Z" fill="white"/>
</svg>
