<svg width="80" height="87" viewBox="0 0 80 87" fill="none" xmlns="http://www.w3.org/2000/svg">
<path d="M44.1932 36.1915C44.8966 35.488 44.8966 34.3624 44.1932 33.659C43.4897 32.9555 42.35 32.9555 41.6325 33.659C40.9149 34.3624 39.7894 34.3624 39.0718 33.659C38.3543 32.9555 37.2287 32.9555 36.5111 33.659C35.8076 34.3624 35.8076 35.488 36.5111 36.1915C38.7904 38.3019 42.1953 38.3019 44.1791 36.1915H44.1932Z" fill="white"/>
<path d="M47.5976 26.0615C48.6107 26.0615 49.4408 26.8776 49.4408 27.8906C49.4408 28.9036 48.6107 29.7196 47.5976 29.7196C46.5846 29.7196 45.7545 28.9036 45.7545 27.8906C45.7545 26.8776 46.5846 26.0615 47.5976 26.0615Z" fill="white"/>
<path d="M72.895 13.5198C73.908 13.5198 74.7381 14.3358 74.7381 15.3488C74.7381 16.3618 73.908 17.1779 72.895 17.1779C71.882 17.1779 71.0519 16.3618 71.0519 15.3488C71.0519 14.3358 71.882 13.5198 72.895 13.5198Z" fill="white"/>
<path d="M67.6326 47.0056C68.6456 47.0056 69.4757 47.8217 69.4757 48.8347C69.4757 49.8477 68.6456 50.6637 67.6326 50.6637C66.6195 50.6637 65.7894 49.8477 65.7894 48.8347C65.7894 47.8217 66.6195 47.0056 67.6326 47.0056Z" fill="white"/>
<path d="M5.40257 13.5198C6.41559 13.5198 7.24569 14.3358 7.24569 15.3488C7.24569 16.3618 6.41559 17.1779 5.40257 17.1779C4.38956 17.1779 3.55945 16.3618 3.55945 15.3488C3.55945 14.3358 4.38956 13.5198 5.40257 13.5198Z" fill="white"/>
<path d="M1.84324 59.2461C2.87033 59.2461 3.68637 60.0621 3.68637 61.0751C3.68637 62.0882 2.85626 62.9042 1.84324 62.9042C0.83023 62.9042 0.00012207 62.0882 0.00012207 61.0751C0.00012207 60.0621 0.83023 59.2461 1.84324 59.2461Z" fill="white"/>
<path d="M33.4018 26.0615C34.4149 26.0615 35.245 26.8776 35.245 27.8906C35.245 28.9036 34.4149 29.7196 33.4018 29.7196C32.3888 29.7196 31.5587 28.9036 31.5587 27.8906C31.5587 26.8776 32.3888 26.0615 33.4018 26.0615Z" fill="white"/>
<path d="M10.8948 29.4185C6.91314 29.4185 3.78967 32.5138 3.78967 36.4533C3.78967 40.3928 6.91314 43.4881 10.8948 43.4881C14.8766 43.4881 18 40.3928 18 36.4533C18 32.5138 14.8766 29.4185 10.8948 29.4185ZM10.8948 39.9707C8.91103 39.9707 7.33523 38.423 7.33523 36.4533C7.33523 34.4835 8.89696 32.9359 10.8948 32.9359C12.8927 32.9359 14.4404 34.4835 14.4404 36.4533C14.4404 38.423 12.8787 39.9707 10.8948 39.9707Z" fill="white"/>
<path d="M47.7044 84.7787L47.712 84.8037L47.7246 84.8267C47.9257 85.1923 48.318 85.604 48.9315 85.604H49.2554H49.2959L49.3344 85.5912C49.6566 85.4838 49.9038 85.2201 50.0465 84.9299C50.1888 84.6407 50.2466 84.2858 50.1415 83.9666L41.4784 55.3706L41.4785 55.3706L41.4764 55.364C41.369 55.0419 41.1053 54.7947 40.8151 54.6519C40.5248 54.5092 40.1685 54.4514 39.8484 54.5581C39.5263 54.6655 39.279 54.9292 39.1363 55.2194C38.9941 55.5086 38.9362 55.8634 39.0413 56.1826L47.7044 84.7787Z" fill="white" stroke="white" stroke-width="0.5"/>
<path d="M32.1724 85.5912L32.2109 85.604H32.2514H32.5753C33.2027 85.604 33.5982 85.1952 33.7868 84.818L33.7981 84.7954L33.8046 84.771L41.4807 56.1718L41.4808 56.1719L41.4821 56.1663C41.5759 55.7817 41.5326 55.4297 41.3782 55.144C41.2244 54.8595 40.9694 54.6577 40.6706 54.5581L40.6608 54.5549L40.6507 54.5524C40.2662 54.4586 39.9142 54.5019 39.6285 54.6563C39.344 54.8101 39.1422 55.0652 39.0426 55.364L39.0402 55.3711L39.0383 55.3783L31.3622 83.9774L31.3621 83.9774L31.3608 83.983C31.267 84.3676 31.3103 84.7196 31.4647 85.0052C31.6185 85.2898 31.8735 85.4915 32.1724 85.5912Z" fill="white" stroke="white" stroke-width="0.5"/>
<path d="M38.4469 55.7574L33.9796 59.7824L29.551 50.9409C29.44 50.6281 29.1792 50.3826 28.8804 50.2602C28.5809 50.1374 28.216 50.1281 27.8976 50.3262C27.5912 50.4398 27.3511 50.6974 27.2304 50.9919C27.1058 51.2958 27.0981 51.6671 27.3054 51.9888L32.5101 62.3984C32.5257 62.4817 32.5651 62.5547 32.6009 62.6084C32.6515 62.6844 32.7192 62.7575 32.7956 62.8212C32.9438 62.9447 33.1606 63.0613 33.401 63.0613H33.5629H33.5791C33.5921 63.0613 33.605 63.0614 33.6178 63.0614C33.9047 63.0619 34.1649 63.0623 34.4001 62.8297L41.1014 56.6141L41.1015 56.6142L41.1081 56.6076L41.1152 56.6005C41.2793 56.4365 41.5052 56.2107 41.5052 55.783C41.5052 55.3885 41.3138 55.0022 41.1081 54.7965L41.1064 54.7948L32.7663 46.6167C32.6684 46.5207 32.5115 46.5214 32.4145 46.6184L31.7667 47.2662C31.7602 47.2727 31.7541 47.2796 31.7483 47.2868L31.1005 48.0965C31.0209 48.196 31.0289 48.3394 31.119 48.4294L38.4469 55.7574Z" fill="white" stroke="white" stroke-width="0.5" stroke-linejoin="round"/>
<path d="M39.6218 56.6236L47.1281 62.8357C47.2634 62.9652 47.4425 63.0153 47.5781 63.0379C47.6699 63.0533 47.7603 63.0587 47.8344 63.0606C47.8498 63.0694 47.8661 63.0767 47.8831 63.0821C47.901 63.1381 47.9384 63.1868 47.9898 63.2186C48.0635 63.2641 48.1555 63.2683 48.233 63.2295C48.4101 63.141 48.5564 63.0457 48.6826 62.9195C48.8088 62.7933 48.9041 62.647 48.9926 62.4699C48.9959 62.4633 48.999 62.4565 49.0017 62.4496L52.9122 52.4956C53.111 52.1708 53.1044 51.8052 52.9798 51.5036C52.8581 51.209 52.6165 50.9564 52.3112 50.844C51.9874 50.6478 51.6236 50.6548 51.3233 50.7789C51.0215 50.9037 50.7636 51.1543 50.6557 51.4704L47.3514 59.809L42.2739 55.6198L49.1077 48.786C49.1194 48.7743 49.1298 48.7615 49.139 48.7479C49.329 48.4627 49.4239 48.1268 49.4239 47.8116C49.4239 47.4993 49.3297 47.1807 49.1077 46.9587C49.0961 46.9471 49.0833 46.9366 49.0696 46.9275C48.7845 46.7374 48.4486 46.6426 48.1334 46.6426C47.8211 46.6426 47.5025 46.7367 47.2805 46.9587L39.6044 54.6348C39.5854 54.6538 39.5696 54.6758 39.5576 54.6998C39.5207 54.7736 39.4834 54.8389 39.4457 54.9043C39.4428 54.9093 39.4398 54.9144 39.4369 54.9195C39.4028 54.9785 39.3666 55.0412 39.3349 55.1047C39.2619 55.2506 39.2073 55.4106 39.2073 55.6213C39.2073 56.0158 39.3987 56.4021 39.6044 56.6078C39.6099 56.6134 39.6157 56.6186 39.6218 56.6236Z" fill="white" stroke="white" stroke-width="0.5" stroke-linejoin="round"/>
<path d="M64.8801 84.3659C64.8801 84.7398 65.0637 85.0778 65.3032 85.3147C65.542 85.551 65.8791 85.7287 66.243 85.7287C66.6673 85.7287 67.0532 85.5686 67.3132 85.3057C67.561 85.0552 67.7053 84.6927 67.6058 84.3121V77.1756C67.6058 76.8054 67.4296 76.4675 67.1903 76.2282C66.9511 75.989 66.6132 75.8127 66.243 75.8127C65.869 75.8127 65.531 75.9963 65.2942 76.2358C65.0579 76.4747 64.8801 76.8117 64.8801 77.1756V84.3659Z" fill="white" stroke="white" stroke-width="0.75"/>
<path d="M11.7623 84.3659C11.7623 84.7398 11.9459 85.0778 12.1854 85.3147C12.4242 85.551 12.7613 85.7287 13.1252 85.7287C13.5495 85.7287 13.9354 85.5686 14.1954 85.3057C14.4432 85.0552 14.5875 84.6927 14.488 84.3121V77.1756C14.488 76.8054 14.3118 76.4675 14.0725 76.2282C13.8333 75.989 13.4954 75.8127 13.1252 75.8127C12.7512 75.8127 12.4132 75.9963 12.1764 76.2358C11.9401 76.4747 11.7623 76.8117 11.7623 77.1756V84.3659Z" fill="white" stroke="white" stroke-width="0.75"/>
<path d="M77.0448 85.7287H77.6515L77.589 85.6038C78.1361 85.4185 78.5191 84.9926 78.6758 84.6793L78.7154 84.6001V84.5116V78.3091V78.2948L78.7143 78.2806L78.5523 76.1591L78.5524 76.1591L78.5517 76.1516C78.2241 72.7615 77.2747 68.9961 75.6994 65.7818C74.1281 62.5757 71.9088 59.8682 69.0126 58.6762C69.0115 58.6758 69.0104 58.6753 69.0093 58.6749L58.0685 53.9327L58.065 53.9312C56.139 53.1194 54.5348 52.1667 52.9285 50.8792C51.6163 49.7451 50.3599 48.6261 49.4049 47.2016L49.3949 47.1866L49.3835 47.1727C48.603 46.2205 47.9571 45.123 47.3146 43.9832C47.187 43.6406 46.9014 43.3774 46.5798 43.2456C46.2536 43.1119 45.8501 43.0983 45.4942 43.3145C45.1566 43.4439 44.8972 43.727 44.7667 44.0455C44.6305 44.3778 44.6189 44.7903 44.848 45.1509C45.4538 46.3728 46.2098 47.443 46.9468 48.4864C47.0151 48.5832 47.0833 48.6797 47.1512 48.7761L47.1563 48.7834L47.1618 48.7904C48.3034 50.2582 49.6358 51.7576 51.1426 52.9341C52.9673 54.4293 54.9564 55.5967 56.9472 56.4197C56.9482 56.4201 56.9492 56.4205 56.9502 56.4209L67.8917 61.1633L67.8916 61.1634L67.8995 61.1667C69.979 62.0122 71.7682 64.2392 73.1256 67.0743C74.4754 69.8934 75.3634 73.2424 75.6836 76.2232C75.6838 76.2247 75.6839 76.2262 75.6841 76.2277L75.8439 78.1627V82.841H4.51302V78.1627L4.67331 76.2231C4.99256 73.2442 5.99811 69.9401 7.48724 67.1433C8.98239 64.3351 10.9342 62.0949 13.1113 61.1641L13.113 61.1633L24.055 56.4208C25.7564 55.7455 27.5943 54.3952 29.5683 52.4214C30.5368 51.4664 31.4942 50.386 32.5431 49.2024C32.7513 48.9675 32.963 48.7285 33.1792 48.4856L33.1934 48.4697L33.2057 48.4522C33.6052 47.885 34.0092 47.3608 34.4188 46.8296L34.4209 46.8269C34.8285 46.2982 35.2415 45.7625 35.6511 45.181L35.6512 45.181L35.6565 45.173C36.0447 44.5907 36.1158 43.6628 35.3905 43.1793C34.8094 42.7919 33.884 42.7203 33.3997 43.441C32.7239 44.4003 32.0377 45.2328 31.3495 46.0678C31.2281 46.2151 31.1067 46.3624 30.9852 46.5106C30.3293 47.167 29.7183 47.8185 29.1314 48.4456L29.0748 48.5061C28.503 49.1171 27.9547 49.7031 27.4032 50.2545C25.6319 52.0258 24.0319 53.1477 22.7657 53.7745L11.8269 58.5157L11.8269 58.5156L11.8203 58.5186C9.01887 59.7974 6.67691 62.5334 4.95938 65.7351C3.23822 68.9436 2.118 72.6672 1.78913 75.9888L1.78904 75.9888L1.78839 75.9972L1.62645 78.1186L1.62537 78.1329V78.1472V84.3658C1.62537 84.7398 1.80896 85.0778 2.04839 85.3146C2.28727 85.5509 2.62433 85.7287 2.98822 85.7287H77.0448Z" fill="white" stroke="white" stroke-width="0.75"/>
<path d="M54.5147 22.8326L54.5285 22.8501L54.5442 22.8659C54.7718 23.0934 55.1893 23.2996 55.6191 23.2996H55.6677C55.7795 23.2996 55.9322 23.2714 56.0543 23.1493C56.0685 23.1351 56.0815 23.1204 56.0932 23.1055C56.3465 23.0424 56.5522 22.8938 56.6989 22.7262C56.8803 22.5188 57.0048 22.2451 57.0138 21.9834C58.3188 12.8667 55.0191 7.53901 52.1522 4.83846C50.5605 3.32977 48.8872 2.36905 47.5909 1.78513C46.9425 1.493 46.3865 1.29436 45.9797 1.16816C45.7764 1.1051 45.6091 1.05977 45.4851 1.0298C45.4233 1.01487 45.3705 1.00332 45.3282 0.995238C45.2996 0.989776 45.2416 0.97876 45.19 0.97876H19.1981C18.8241 0.97876 18.4861 1.16235 18.2493 1.40179C18.0277 1.62586 17.8575 1.93632 17.8373 2.27427C17.8339 2.28649 17.8312 2.29722 17.8292 2.30575C17.8205 2.34207 17.8127 2.38302 17.8057 2.42648C17.7917 2.51389 17.7786 2.62544 17.7679 2.75738C17.7465 3.02197 17.7338 3.38038 17.7453 3.81234C17.7682 4.67627 17.8878 5.84355 18.2322 7.15166C18.9212 9.76853 20.5126 12.9559 24.0291 15.3892C24.7015 15.9091 25.5541 16.4102 26.3948 16.7465L26.4619 16.7733H26.5341H26.6678C26.6743 16.7746 26.6826 16.7765 26.6931 16.7788C26.7321 16.7876 26.7875 16.801 26.8616 16.819C26.8859 16.8249 26.9119 16.8313 26.9397 16.8381C27.079 16.8721 27.2614 16.9167 27.4816 16.9683C28.0102 17.0924 28.7582 17.2578 29.6761 17.4232C31.5109 17.7538 34.028 18.085 36.8337 18.085C41.4727 18.085 45.5275 17.3027 48.6806 15.4188L54.5147 22.8326ZM49.0928 12.25H48.7178V12.31C48.6951 12.3167 48.6724 12.3245 48.6499 12.3335C48.5517 12.3728 48.4409 12.4409 48.3561 12.5583C48.3151 12.615 48.2851 12.6766 48.2649 12.7411C45.4156 14.5901 41.7612 15.5375 36.9956 15.5375C32.5382 15.5375 28.8839 14.572 27.8258 14.2924C27.7595 14.2749 27.7033 14.2601 27.6578 14.2483C27.3773 14.0987 27.0916 13.9204 26.7923 13.7338C26.7751 13.723 26.7579 13.7123 26.7406 13.7015C26.4217 13.5027 26.0873 13.2959 25.7529 13.1269C21.6034 10.2999 20.7971 6.08553 20.7144 4.01216H45.1149C45.147 4.02223 45.184 4.03361 45.2257 4.04642C45.985 4.27976 48.2982 4.99064 50.4717 7.01982C53.2741 9.67616 54.7245 13.4743 54.6365 18.3051L50.1961 12.7156L50.1828 12.6989L50.1677 12.6837C49.9401 12.4562 49.5226 12.25 49.0928 12.25Z" fill="white" stroke="white" stroke-width="0.75"/>
<path d="M40.4224 46.8302H40.2671C38.0909 46.8302 35.9271 46.3323 33.9451 45.6608M40.4224 46.8302L34.0646 45.3054M40.4224 46.8302L40.4554 46.7972M40.4224 46.8302L40.4554 46.7972M33.9451 45.6608C33.9448 45.6607 33.9446 45.6606 33.9443 45.6605L34.0646 45.3054M33.9451 45.6608C33.9454 45.6609 33.9457 45.661 33.9461 45.6611L34.0646 45.3054M33.9451 45.6608C33.4282 45.4884 32.7379 45.1514 32.2265 44.8114M34.0646 45.3054C33.5788 45.1434 32.9148 44.8196 32.429 44.4957M32.2265 44.8114C32.2284 44.8125 32.2302 44.8136 32.232 44.8148L32.429 44.4957M32.2265 44.8114C30.917 44.003 29.5892 43.1578 28.4068 41.9754C25.5541 39.1227 23.8839 35.2806 23.5533 31.2796L23.552 31.2642V31.2487V14.2447C23.552 13.8808 23.7298 13.5437 23.9661 13.3049C24.2029 13.0654 24.5409 12.8818 24.9148 12.8818C25.285 12.8818 25.6229 13.0581 25.8622 13.2973C26.1015 13.5366 26.2777 13.8745 26.2777 14.2447V31.0779C26.4372 34.4124 27.87 37.5925 30.2488 39.9714C31.2205 40.943 32.1592 41.7226 33.421 42.3457L33.4427 42.3564L33.4629 42.3699C33.8912 42.6554 34.335 42.8033 34.8167 42.9638L34.8472 42.9739L34.8558 42.9768L34.8557 42.9769C36.6416 43.6204 38.3899 44.1045 40.1213 44.1045C41.8748 44.1045 43.624 43.7884 45.211 43.1442L45.2221 43.1397L45.2335 43.1359C45.4479 43.0644 45.6714 42.9552 45.9234 42.8312L45.9349 42.8256C46.1652 42.7123 46.4208 42.5866 46.6782 42.4979C50.9443 40.2752 53.6462 35.9865 53.9649 31.2201V22.0827C53.9649 21.7188 54.1427 21.3818 54.379 21.1429C54.6158 20.9035 54.9538 20.7199 55.3278 20.7199C55.698 20.7199 56.0359 20.8961 56.2751 21.1354C56.5144 21.3746 56.6906 21.7126 56.6906 22.0827V31.3945V31.4051L56.69 31.4157C56.3587 37.2645 53.0127 42.2796 47.8461 45.1244C47.3358 45.4625 46.6446 45.7998 45.9586 45.9735C44.4808 46.4588 42.546 46.7819 40.4554 46.7972M32.2265 44.8114C32.2247 44.8101 32.2228 44.8089 32.221 44.8077L32.429 44.4957M32.429 44.4957L40.4554 46.7972" fill="white" stroke="white" stroke-width="0.75"/>
</svg>
