<svg width="247" height="196" viewBox="0 0 247 196" fill="none" xmlns="http://www.w3.org/2000/svg">
<g clip-path="url(#clip0_3689_13721)">
<circle cx="152.625" cy="46.625" r="149.625" fill="#FED8F6" fill-opacity="0.28"/>
<circle cx="153.201" cy="46.05" r="114.521" fill="#C353AE" fill-opacity="0.5"/>
<circle cx="152.841" cy="46.8408" r="75.0283" fill="#A80689" fill-opacity="0.7"/>
<circle cx="87" cy="11" r="4" fill="white"/>
<circle cx="77" cy="44" r="4" fill="white"/>
<circle cx="42" cy="22" r="4" fill="white"/>
<circle cx="4" cy="33" r="4" fill="white"/>
<g clip-path="url(#clip1_3689_13721)">
<path d="M251.907 26.878L239.978 -2.55354L216.198 -8.62526L190.017 -9.46094L173.729 -6.39243L135.593 24.2012L122.438 34.2424L159.242 35.1956L251.907 26.878Z" fill="url(#paint0_linear_3689_13721)"/>
<path d="M174.734 -10.1976C175.021 -10.3543 176.653 -11.1247 177.632 -11.1247C177.632 -11.1247 177.632 -11.1247 177.645 -11.1116C177.749 -11.1247 177.841 -11.1508 177.945 -11.1508L265.663 -13.9712C267.386 -14.0234 268.847 -12.6524 268.9 -10.9288C268.952 -9.28359 267.712 -7.8995 266.107 -7.72975L285.853 13.0447C283.099 13.8151 273.689 17.9151 270.805 18.0065C262.517 18.2546 247.26 16.6616 239.038 17.5103C238.555 8.93157 238.32 -4.90934 220.649 -4.87016C199.78 -4.81793 185.462 -6.13674 174.486 -1.85389C163.51 2.4159 129.485 32.0302 125.061 33.1009C120.637 34.1716 115.664 35.2162 115.664 35.2162C115.664 35.2162 169.096 -7.12911 174.734 -10.1845V-10.1976Z" fill="#A80689"/>
<path d="M100.112 56.8445C100.112 56.8445 97.9583 46.5552 108.047 38.081C113.998 33.08 125.183 33.8112 126.136 33.7851C132.518 33.5631 138.43 33.4456 144.317 31.8264C145.074 32.4532 146.079 32.8057 147.266 32.6099C153.309 31.6697 159.13 29.7111 165.029 28.0789C165.525 28.3793 166.125 28.5621 166.856 28.549C183.066 28.4837 199.145 25.9636 215.251 24.4881C232.309 22.9343 249.367 21.2891 266.359 19.1476C269.179 18.7951 270.223 15.8441 269.505 13.8594C284.292 14.9693 288.677 16.0008 289.539 24.3315C290.452 33.1844 291.066 41.1103 291.066 41.1103C291.066 41.1103 300.671 50.3811 299.431 64.0261C298.661 72.5396 291.405 79.0161 282.869 79.2511L108.425 84.0563C102.252 84.226 96.9925 79.5253 96.5618 73.3622C96.1442 67.2905 96.601 60.2917 100.138 56.8315L100.112 56.8445Z" fill="url(#paint1_linear_3689_13721)"/>
<path d="M287.284 74.0856C281.581 74.0203 275.891 74.3207 270.187 74.5949C260.986 75.0519 252.894 74.8168 244.933 79.2042C244.802 78.1334 244.711 77.0497 244.711 75.9528C244.711 61.3938 256.509 49.5898 271.062 49.5898C285.444 49.5898 297.112 61.1196 297.386 75.4567C294.058 74.856 290.769 74.1248 287.297 74.0856H287.284Z" fill="#171714"/>
<path d="M150.803 81.3227C147.788 82.6807 141.601 79.7949 138.326 79.573C133.236 79.2204 128.146 80.252 123.108 80.8395C115.877 81.6883 108.712 80.8004 101.508 80.3172C101.534 65.7843 113.319 54.0195 127.845 54.0195C142.371 54.0195 154.196 65.8235 154.196 80.3825C154.196 80.5131 154.183 80.6306 154.183 80.7612C153.113 80.6306 151.964 80.7873 150.79 81.3096L150.803 81.3227Z" fill="#171714"/>
<path d="M108.052 38.0629C108.052 38.0629 111.041 37.1489 110.897 41.719C110.74 46.3022 100.13 56.8265 100.13 56.8265C100.13 56.8265 97.7412 44.9311 108.065 38.0629H108.052Z" fill="#F6B53E"/>
<path d="M99.0374 88.8125H130.987C135.896 88.8125 139.875 84.8314 139.875 79.9204V79.8943C139.875 74.9833 135.896 71.0021 130.987 71.0021H99.0374C94.1287 71.0021 90.1495 74.9833 90.1495 79.8943V79.9204C90.1495 84.8314 94.1287 88.8125 99.0374 88.8125Z" fill="#171714"/>
<path d="M144.861 84.1986H294.22C296.961 84.1986 299.205 81.9527 299.205 79.2106C299.205 76.4685 296.961 74.2227 294.22 74.2227H144.861C142.12 74.2227 139.875 76.4685 139.875 79.2106C139.875 81.9527 142.12 84.1986 144.861 84.1986Z" fill="#171714"/>
<path d="M118.604 44.1645L286.405 19.4728C289.12 19.0681 291.012 16.5219 290.607 13.8059C290.203 11.09 287.658 9.19662 284.943 9.6014L117.155 34.293C114.441 34.6978 112.548 37.244 112.953 39.96C113.358 42.6759 115.903 44.5693 118.617 44.1645H118.604Z" fill="url(#paint2_linear_3689_13721)"/>
<path d="M127.874 96.142C139.025 96.142 148.064 87.0982 148.064 75.9421C148.064 64.786 139.025 55.7422 127.874 55.7422C116.723 55.7422 107.684 64.786 107.684 75.9421C107.684 87.0982 116.723 96.142 127.874 96.142Z" fill="#090909"/>
<path d="M127.863 88.813C134.963 88.813 140.719 83.0547 140.719 75.9514C140.719 68.8482 134.963 63.0898 127.863 63.0898C120.763 63.0898 115.008 68.8482 115.008 75.9514C115.008 83.0547 120.763 88.813 127.863 88.813Z" fill="#C6C6C6"/>
<path d="M128.96 82.6302C132.674 82.029 135.198 78.5291 134.597 74.8131C133.996 71.097 130.498 68.5719 126.784 69.1731C123.07 69.7743 120.546 73.2742 121.147 76.9902C121.748 80.7063 125.246 83.2314 128.96 82.6302Z" fill="#E2E2E2"/>
<path d="M183.539 24.5276L189.999 23.5744V-9.46094H183.539V24.5276Z" fill="url(#paint3_linear_3689_13721)"/>
<path d="M194.703 32.682L202.403 31.3501C204.348 31.0106 205.679 29.1434 205.34 27.1978C205.001 25.2523 203.134 23.9204 201.19 24.2599L193.489 25.5918C191.545 25.9313 190.214 27.7985 190.553 29.744C190.892 31.6896 192.759 33.0215 194.703 32.682Z" fill="#002A84"/>
<path d="M172.379 36.2445L180.079 34.9126C182.024 34.5731 183.355 32.7059 183.016 30.7603C182.676 28.8148 180.81 27.4829 178.865 27.8224L171.165 29.1543C169.221 29.4938 167.889 31.361 168.229 33.3065C168.568 35.2521 170.434 36.584 172.379 36.2445Z" fill="#002A84"/>
<path d="M173.165 34.2057L179.012 33.2003C180.5 32.9391 181.492 31.5289 181.244 30.0403C180.983 28.5518 179.573 27.5594 178.085 27.8075L172.238 28.8129C170.751 29.0741 169.759 30.4843 170.007 31.9729C170.268 33.4614 171.677 34.4538 173.165 34.2057Z" fill="#171714"/>
<path d="M195.478 30.9596L201.338 29.9542C202.826 29.693 203.817 28.2828 203.569 26.7943C203.308 25.3057 201.899 24.3133 200.411 24.5614L194.551 25.5669C193.063 25.828 192.071 27.2382 192.319 28.7268C192.58 30.2153 193.99 31.2077 195.478 30.9596Z" fill="#171714"/>
<path d="M105.68 39.9219C105.68 39.9219 107.716 42.3244 104.218 45.4713C100.721 48.6181 100.864 47.4169 100.864 47.4169C100.864 47.4169 101.608 43.5127 105.68 39.9219Z" fill="white"/>
<path d="M127.875 63.1016V88.8117" stroke="#E2E2E2" stroke-width="0.360703" stroke-miterlimit="10"/>
<path d="M126.211 63.207L129.513 88.7082" stroke="#E2E2E2" stroke-width="0.360703" stroke-miterlimit="10"/>
<path d="M124.594 63.5117L131.146 88.3862" stroke="#E2E2E2" stroke-width="0.360703" stroke-miterlimit="10"/>
<path d="M123.023 64.0391L132.708 87.8689" stroke="#E2E2E2" stroke-width="0.360703" stroke-miterlimit="10"/>
<path d="M121.547 64.7539L134.207 87.1344" stroke="#E2E2E2" stroke-width="0.360703" stroke-miterlimit="10"/>
<path d="M120.164 65.6797L135.591 86.2452" stroke="#E2E2E2" stroke-width="0.360703" stroke-miterlimit="10"/>
<path d="M118.898 66.7461L136.831 85.1702" stroke="#E2E2E2" stroke-width="0.360703" stroke-miterlimit="10"/>
<path d="M117.797 67.9648L137.948 83.9341" stroke="#E2E2E2" stroke-width="0.360703" stroke-miterlimit="10"/>
<path d="M116.859 69.3477L138.89 82.5749" stroke="#E2E2E2" stroke-width="0.360703" stroke-miterlimit="10"/>
<path d="M116.086 70.8125L139.644 81.1148" stroke="#E2E2E2" stroke-width="0.360703" stroke-miterlimit="10"/>
<path d="M115.523 72.3594L140.203 79.554" stroke="#E2E2E2" stroke-width="0.360703" stroke-miterlimit="10"/>
<path d="M115.172 73.9766L140.57 77.933" stroke="#E2E2E2" stroke-width="0.360703" stroke-miterlimit="10"/>
<path d="M115.02 75.6289L140.718 76.2948" stroke="#E2E2E2" stroke-width="0.360703" stroke-miterlimit="10"/>
<path d="M115.078 77.2835L140.646 74.6328" stroke="#E2E2E2" stroke-width="0.360703" stroke-miterlimit="10"/>
<path d="M115.359 78.9189L140.379 73.0039" stroke="#E2E2E2" stroke-width="0.360703" stroke-miterlimit="10"/>
<path d="M115.852 80.4968L139.905 71.4219" stroke="#E2E2E2" stroke-width="0.360703" stroke-miterlimit="10"/>
<path d="M116.531 82.0014L139.214 69.9102" stroke="#E2E2E2" stroke-width="0.360703" stroke-miterlimit="10"/>
<path d="M117.398 83.4025L138.346 68.5039" stroke="#E2E2E2" stroke-width="0.360703" stroke-miterlimit="10"/>
<path d="M118.43 84.6857L137.289 67.2148" stroke="#E2E2E2" stroke-width="0.360703" stroke-miterlimit="10"/>
<path d="M119.648 85.8341L136.119 66.0781" stroke="#E2E2E2" stroke-width="0.360703" stroke-miterlimit="10"/>
<path d="M120.961 86.7952L134.756 65.0938" stroke="#E2E2E2" stroke-width="0.360703" stroke-miterlimit="10"/>
<path d="M122.438 87.6031L133.322 64.3086" stroke="#E2E2E2" stroke-width="0.360703" stroke-miterlimit="10"/>
<path d="M123.961 88.2081L131.766 63.6992" stroke="#E2E2E2" stroke-width="0.360703" stroke-miterlimit="10"/>
<path d="M125.578 88.6048L130.172 63.3125" stroke="#E2E2E2" stroke-width="0.360703" stroke-miterlimit="10"/>
<path d="M127.219 88.7973L128.537 63.1133" stroke="#E2E2E2" stroke-width="0.360703" stroke-miterlimit="10"/>
<path d="M194.461 61.5471L234.724 21.2648L238.614 36.9338L272.182 18.3008L232.479 58.4394L228.499 42.4048L194.461 61.5471Z" fill="url(#paint4_linear_3689_13721)"/>
<path d="M134.766 23.3047C132.299 23.3047 130.289 25.3155 130.289 27.7834V37.681C130.289 40.1488 132.299 42.1597 134.766 42.1597" fill="#090909"/>
<path d="M224.93 -4.5789C231.651 -5.17954 237.368 -0.674719 241.57 4.60049C243.919 7.55148 249.205 8.07378 257.545 6.6244C276.6 3.30781 282.825 9.84959 282.825 9.84959L238.973 16.3522C238.973 16.3522 239.338 -2.59416 224.93 -4.5789Z" fill="#090909"/>
<path opacity="0.44" d="M197.203 22.379L202.28 21.6348L210.763 -5.05469H205.987L197.203 22.379Z" fill="white"/>
<path opacity="0.44" d="M191.953 23.1494L194.616 22.7446L203.477 -5.05469H201.089L191.953 23.1494Z" fill="white"/>
<path opacity="0.44" d="M171.457 26.2049L176.534 25.4606L183.543 3.57633V-4.14062L181.272 -3.76196L171.457 26.2049Z" fill="white"/>
<path opacity="0.44" d="M166.219 26.971L168.881 26.5662L178.239 -3.07422L175.616 -2.27771L166.219 26.971Z" fill="white"/>
</g>
</g>
<defs>
<linearGradient id="paint0_linear_3689_13721" x1="122.438" y1="12.8673" x2="251.907" y2="12.8673" gradientUnits="userSpaceOnUse">
<stop offset="0.46" stop-color="#276F67"/>
<stop offset="0.59" stop-color="#2A6862"/>
<stop offset="0.76" stop-color="#345754"/>
<stop offset="0.92" stop-color="#414042"/>
</linearGradient>
<linearGradient id="paint1_linear_3689_13721" x1="96.4052" y1="48.9709" x2="299.51" y2="48.9709" gradientUnits="userSpaceOnUse">
<stop stop-color="#F3F7F4"/>
<stop offset="1" stop-color="#E8DAFA"/>
</linearGradient>
<linearGradient id="paint2_linear_3689_13721" x1="112.901" y1="26.8764" x2="290.673" y2="26.8764" gradientUnits="userSpaceOnUse">
<stop stop-color="#C353AE"/>
<stop offset="0.74" stop-color="#BA3AA2"/>
</linearGradient>
<linearGradient id="paint3_linear_3689_13721" x1="183.539" y1="7.52681" x2="189.999" y2="7.52681" gradientUnits="userSpaceOnUse">
<stop stop-color="#C353AE"/>
<stop offset="0.74" stop-color="#BA3AA2"/>
</linearGradient>
<linearGradient id="paint4_linear_3689_13721" x1="194.461" y1="39.9239" x2="272.182" y2="39.9239" gradientUnits="userSpaceOnUse">
<stop stop-color="#C353AE"/>
<stop offset="0.74" stop-color="#BA3AA2"/>
</linearGradient>
<clipPath id="clip0_3689_13721">
<rect width="247" height="196" fill="white"/>
</clipPath>
<clipPath id="clip1_3689_13721">
<rect width="210.727" height="113.273" fill="white" transform="translate(90.1523 -17.125)"/>
</clipPath>
</defs>
</svg>
