<svg width="526" height="198" viewBox="0 0 526 198" fill="none" xmlns="http://www.w3.org/2000/svg">
<rect width="526" height="62" fill="white"/>
<circle cx="405.625" cy="47.625" r="149.625" fill="#FDF3FF"/>
<circle cx="406.201" cy="47.05" r="114.521" fill="#EBC3E7"/>
<circle cx="405.841" cy="47.8408" r="75.0283" fill="#C251AD"/>
<circle cx="340" cy="12" r="4" fill="white"/>
<circle cx="330" cy="45" r="4" fill="white"/>
<circle cx="295" cy="23" r="4" fill="white"/>
<circle cx="257" cy="34" r="4" fill="white"/>
<g clip-path="url(#clip0_40000220_27490)">
<path d="M504.907 27.878L492.978 -1.55354L469.198 -7.62526L443.017 -8.46094L426.729 -5.39243L388.593 25.2012L375.438 35.2424L412.242 36.1956L504.907 27.878Z" fill="url(#paint0_linear_40000220_27490)"/>
<path d="M427.734 -9.19761C428.021 -9.3543 429.653 -10.1247 430.632 -10.1247C430.632 -10.1247 430.632 -10.1247 430.645 -10.1116C430.749 -10.1247 430.841 -10.1508 430.945 -10.1508L518.663 -12.9712C520.386 -13.0234 521.847 -11.6524 521.9 -9.92882C521.952 -8.28359 520.712 -6.8995 519.107 -6.72975L538.853 14.0447C536.099 14.8151 526.689 18.9151 523.805 19.0065C515.517 19.2546 500.26 17.6616 492.038 18.5103C491.555 9.93157 491.32 -3.90934 473.649 -3.87016C452.78 -3.81793 438.462 -5.13674 427.486 -0.853893C416.51 3.4159 382.485 33.0302 378.061 34.1009C373.637 35.1716 368.664 36.2162 368.664 36.2162C368.664 36.2162 422.096 -6.12911 427.734 -9.18455V-9.19761Z" fill="#A80689"/>
<path d="M532.677 80.9211C544.39 80.9211 553.886 71.4213 553.886 59.7027C553.886 47.9842 544.39 38.4844 532.677 38.4844C520.964 38.4844 511.469 47.9842 511.469 59.7027C511.469 71.4213 520.964 80.9211 532.677 80.9211Z" fill="#009BDD"/>
<path d="M353.112 57.8445C353.112 57.8445 350.958 47.5552 361.047 39.081C366.998 34.08 378.183 34.8112 379.136 34.7851C385.518 34.5631 391.43 34.4456 397.317 32.8264C398.074 33.4532 399.079 33.8057 400.266 33.6099C406.309 32.6697 412.13 30.7111 418.029 29.0789C418.525 29.3793 419.125 29.5621 419.856 29.549C436.066 29.4837 452.145 26.9636 468.251 25.4881C485.309 23.9343 502.367 22.2891 519.359 20.1476C522.179 19.7951 523.223 16.8441 522.505 14.8594C537.292 15.9693 541.677 17.0008 542.539 25.3315C543.452 34.1844 544.066 42.1103 544.066 42.1103C544.066 42.1103 553.671 51.3811 552.432 65.0261C551.661 73.5396 544.405 80.0161 535.869 80.2511L361.425 85.0563C355.252 85.226 349.993 80.5253 349.562 74.3622C349.144 68.2905 349.601 61.2917 353.138 57.8315L353.112 57.8445Z" fill="url(#paint1_linear_40000220_27490)"/>
<path d="M540.284 75.0856C534.581 75.0203 528.891 75.3207 523.187 75.5949C513.986 76.0519 505.894 75.8168 497.933 80.2042C497.802 79.1334 497.711 78.0497 497.711 76.9528C497.711 62.3938 509.509 50.5898 524.062 50.5898C538.444 50.5898 550.112 62.1196 550.386 76.4567C547.058 75.856 543.769 75.1248 540.297 75.0856H540.284Z" fill="#171714"/>
<path d="M403.803 82.3227C400.788 83.6807 394.601 80.7949 391.326 80.573C386.236 80.2204 381.146 81.252 376.108 81.8395C368.877 82.6883 361.712 81.8004 354.508 81.3172C354.534 66.7843 366.319 55.0195 380.845 55.0195C395.371 55.0195 407.196 66.8235 407.196 81.3825C407.196 81.5131 407.183 81.6306 407.183 81.7612C406.113 81.6306 404.964 81.7873 403.79 82.3096L403.803 82.3227Z" fill="#171714"/>
<path d="M361.052 39.0629C361.052 39.0629 364.041 38.1489 363.897 42.719C363.74 47.3022 353.13 57.8265 353.13 57.8265C353.13 57.8265 350.741 45.9311 361.065 39.0629H361.052Z" fill="#F6B53E"/>
<path d="M352.037 89.8125H383.987C388.896 89.8125 392.875 85.8314 392.875 80.9204V80.8943C392.875 75.9833 388.896 72.0021 383.987 72.0021H352.037C347.129 72.0021 343.149 75.9833 343.149 80.8943V80.9204C343.149 85.8314 347.129 89.8125 352.037 89.8125Z" fill="#171714"/>
<path d="M397.861 85.1986H547.22C549.961 85.1986 552.205 82.9527 552.205 80.2106C552.205 77.4685 549.961 75.2227 547.22 75.2227H397.861C395.12 75.2227 392.875 77.4685 392.875 80.2106C392.875 82.9527 395.12 85.1986 397.861 85.1986Z" fill="#171714"/>
<path d="M371.604 45.1645L539.405 20.4728C542.12 20.0681 544.012 17.5219 543.607 14.8059C543.203 12.09 540.658 10.1966 537.943 10.6014L370.155 35.293C367.441 35.6978 365.548 38.244 365.953 40.96C366.358 43.6759 368.903 45.5693 371.617 45.1645H371.604Z" fill="url(#paint2_linear_40000220_27490)"/>
<path d="M524.042 97.142C535.193 97.142 544.232 88.0982 544.232 76.9421C544.232 65.786 535.193 56.7422 524.042 56.7422C512.891 56.7422 503.852 65.786 503.852 76.9421C503.852 88.0982 512.891 97.142 524.042 97.142Z" fill="#090909"/>
<path d="M524.043 89.813C531.143 89.813 536.899 84.0547 536.899 76.9514C536.899 69.8482 531.143 64.0898 524.043 64.0898C516.943 64.0898 511.188 69.8482 511.188 76.9514C511.188 84.0547 516.943 89.813 524.043 89.813Z" fill="#C6C6C6"/>
<path d="M380.874 97.142C392.025 97.142 401.064 88.0982 401.064 76.9421C401.064 65.786 392.025 56.7422 380.874 56.7422C369.723 56.7422 360.684 65.786 360.684 76.9421C360.684 88.0982 369.723 97.142 380.874 97.142Z" fill="#090909"/>
<path d="M380.863 89.813C387.963 89.813 393.719 84.0547 393.719 76.9514C393.719 69.8482 387.963 64.0898 380.863 64.0898C373.763 64.0898 368.008 69.8482 368.008 76.9514C368.008 84.0547 373.763 89.813 380.863 89.813Z" fill="#C6C6C6"/>
<path d="M530.065 79.5205C531.513 76.0459 529.871 72.0551 526.398 70.6066C522.925 69.1582 518.936 70.8006 517.489 74.2752C516.041 77.7497 517.683 81.7406 521.155 83.1891C524.628 84.6375 528.617 82.995 530.065 79.5205Z" fill="#E2E2E2"/>
<path d="M381.96 83.6302C385.674 83.029 388.198 79.5291 387.597 75.8131C386.996 72.097 383.498 69.5719 379.784 70.1731C376.07 70.7743 373.546 74.2742 374.147 77.9902C374.748 81.7063 378.246 84.2314 381.96 83.6302Z" fill="#E2E2E2"/>
<path d="M436.539 25.5276L442.999 24.5744V-8.46094H436.539V25.5276Z" fill="url(#paint3_linear_40000220_27490)"/>
<path d="M447.703 33.682L455.403 32.3501C457.348 32.0106 458.679 30.1434 458.34 28.1978C458.001 26.2523 456.134 24.9204 454.19 25.2599L446.489 26.5918C444.545 26.9313 443.214 28.7985 443.553 30.744C443.892 32.6896 445.759 34.0215 447.703 33.682Z" fill="#002A84"/>
<path d="M425.379 37.2445L433.079 35.9126C435.024 35.5731 436.355 33.7059 436.016 31.7603C435.676 29.8148 433.81 28.4829 431.865 28.8224L424.165 30.1543C422.221 30.4938 420.889 32.361 421.229 34.3065C421.568 36.2521 423.434 37.584 425.379 37.2445Z" fill="#002A84"/>
<path d="M426.165 35.2057L432.012 34.2003C433.5 33.9391 434.492 32.5289 434.244 31.0403C433.983 29.5518 432.573 28.5594 431.085 28.8075L425.238 29.8129C423.751 30.0741 422.759 31.4843 423.007 32.9729C423.268 34.4614 424.677 35.4538 426.165 35.2057Z" fill="#171714"/>
<path d="M448.478 31.9596L454.338 30.9542C455.826 30.693 456.817 29.2828 456.569 27.7943C456.308 26.3057 454.899 25.3133 453.411 25.5614L447.551 26.5669C446.063 26.828 445.071 28.2382 445.319 29.7268C445.58 31.2153 446.99 32.2077 448.478 31.9596Z" fill="#171714"/>
<path d="M358.68 40.9219C358.68 40.9219 360.716 43.3244 357.218 46.4713C353.721 49.6181 353.864 48.4169 353.864 48.4169C353.864 48.4169 354.608 44.5127 358.68 40.9219Z" fill="white"/>
<path d="M524.031 64.1016V89.8117" stroke="#E2E2E2" stroke-width="0.360703" stroke-miterlimit="10"/>
<path d="M522.391 64.207L525.693 89.7082" stroke="#E2E2E2" stroke-width="0.360703" stroke-miterlimit="10"/>
<path d="M520.773 64.5117L527.325 89.3862" stroke="#E2E2E2" stroke-width="0.360703" stroke-miterlimit="10"/>
<path d="M519.203 65.0391L528.887 88.8689" stroke="#E2E2E2" stroke-width="0.360703" stroke-miterlimit="10"/>
<path d="M517.703 65.7539L530.363 88.1344" stroke="#E2E2E2" stroke-width="0.360703" stroke-miterlimit="10"/>
<path d="M516.32 66.6797L531.747 87.2452" stroke="#E2E2E2" stroke-width="0.360703" stroke-miterlimit="10"/>
<path d="M515.078 67.7461L533.024 86.1702" stroke="#E2E2E2" stroke-width="0.360703" stroke-miterlimit="10"/>
<path d="M513.953 68.9648L534.104 84.9341" stroke="#E2E2E2" stroke-width="0.360703" stroke-miterlimit="10"/>
<path d="M513.016 70.3477L535.059 83.5749" stroke="#E2E2E2" stroke-width="0.360703" stroke-miterlimit="10"/>
<path d="M512.266 71.8125L535.823 82.1148" stroke="#E2E2E2" stroke-width="0.360703" stroke-miterlimit="10"/>
<path d="M511.703 73.3594L536.383 80.554" stroke="#E2E2E2" stroke-width="0.360703" stroke-miterlimit="10"/>
<path d="M511.352 74.9766L536.749 78.933" stroke="#E2E2E2" stroke-width="0.360703" stroke-miterlimit="10"/>
<path d="M511.199 76.6289L536.897 77.2948" stroke="#E2E2E2" stroke-width="0.360703" stroke-miterlimit="10"/>
<path d="M511.258 78.2835L536.825 75.6328" stroke="#E2E2E2" stroke-width="0.360703" stroke-miterlimit="10"/>
<path d="M511.539 79.9189L536.558 74.0039" stroke="#E2E2E2" stroke-width="0.360703" stroke-miterlimit="10"/>
<path d="M512.031 81.4968L536.085 72.4219" stroke="#E2E2E2" stroke-width="0.360703" stroke-miterlimit="10"/>
<path d="M512.688 83.0014L535.371 70.9102" stroke="#E2E2E2" stroke-width="0.360703" stroke-miterlimit="10"/>
<path d="M513.578 84.4025L534.525 69.5039" stroke="#E2E2E2" stroke-width="0.360703" stroke-miterlimit="10"/>
<path d="M514.609 85.6857L533.469 68.2148" stroke="#E2E2E2" stroke-width="0.360703" stroke-miterlimit="10"/>
<path d="M515.828 86.8341L532.286 67.0781" stroke="#E2E2E2" stroke-width="0.360703" stroke-miterlimit="10"/>
<path d="M517.164 87.7952L530.959 66.0938" stroke="#E2E2E2" stroke-width="0.360703" stroke-miterlimit="10"/>
<path d="M518.594 88.6031L529.479 65.3086" stroke="#E2E2E2" stroke-width="0.360703" stroke-miterlimit="10"/>
<path d="M520.141 89.2081L527.958 64.6992" stroke="#E2E2E2" stroke-width="0.360703" stroke-miterlimit="10"/>
<path d="M521.746 89.6048L526.353 64.3125" stroke="#E2E2E2" stroke-width="0.360703" stroke-miterlimit="10"/>
<path d="M523.375 89.7973L524.693 64.1133" stroke="#E2E2E2" stroke-width="0.360703" stroke-miterlimit="10"/>
<path d="M380.875 64.1016V89.8117" stroke="#E2E2E2" stroke-width="0.360703" stroke-miterlimit="10"/>
<path d="M379.211 64.207L382.513 89.7082" stroke="#E2E2E2" stroke-width="0.360703" stroke-miterlimit="10"/>
<path d="M377.594 64.5117L384.146 89.3862" stroke="#E2E2E2" stroke-width="0.360703" stroke-miterlimit="10"/>
<path d="M376.023 65.0391L385.708 88.8689" stroke="#E2E2E2" stroke-width="0.360703" stroke-miterlimit="10"/>
<path d="M374.547 65.7539L387.207 88.1344" stroke="#E2E2E2" stroke-width="0.360703" stroke-miterlimit="10"/>
<path d="M373.164 66.6797L388.591 87.2452" stroke="#E2E2E2" stroke-width="0.360703" stroke-miterlimit="10"/>
<path d="M371.898 67.7461L389.831 86.1702" stroke="#E2E2E2" stroke-width="0.360703" stroke-miterlimit="10"/>
<path d="M370.797 68.9648L390.948 84.9341" stroke="#E2E2E2" stroke-width="0.360703" stroke-miterlimit="10"/>
<path d="M369.859 70.3477L391.89 83.5749" stroke="#E2E2E2" stroke-width="0.360703" stroke-miterlimit="10"/>
<path d="M369.086 71.8125L392.644 82.1148" stroke="#E2E2E2" stroke-width="0.360703" stroke-miterlimit="10"/>
<path d="M368.523 73.3594L393.203 80.554" stroke="#E2E2E2" stroke-width="0.360703" stroke-miterlimit="10"/>
<path d="M368.172 74.9766L393.57 78.933" stroke="#E2E2E2" stroke-width="0.360703" stroke-miterlimit="10"/>
<path d="M368.02 76.6289L393.718 77.2948" stroke="#E2E2E2" stroke-width="0.360703" stroke-miterlimit="10"/>
<path d="M368.078 78.2835L393.646 75.6328" stroke="#E2E2E2" stroke-width="0.360703" stroke-miterlimit="10"/>
<path d="M368.359 79.9189L393.379 74.0039" stroke="#E2E2E2" stroke-width="0.360703" stroke-miterlimit="10"/>
<path d="M368.852 81.4968L392.905 72.4219" stroke="#E2E2E2" stroke-width="0.360703" stroke-miterlimit="10"/>
<path d="M369.531 83.0014L392.214 70.9102" stroke="#E2E2E2" stroke-width="0.360703" stroke-miterlimit="10"/>
<path d="M370.398 84.4025L391.346 69.5039" stroke="#E2E2E2" stroke-width="0.360703" stroke-miterlimit="10"/>
<path d="M371.43 85.6857L390.289 68.2148" stroke="#E2E2E2" stroke-width="0.360703" stroke-miterlimit="10"/>
<path d="M372.648 86.8341L389.119 67.0781" stroke="#E2E2E2" stroke-width="0.360703" stroke-miterlimit="10"/>
<path d="M373.961 87.7952L387.756 66.0938" stroke="#E2E2E2" stroke-width="0.360703" stroke-miterlimit="10"/>
<path d="M375.438 88.6031L386.322 65.3086" stroke="#E2E2E2" stroke-width="0.360703" stroke-miterlimit="10"/>
<path d="M376.961 89.2081L384.766 64.6992" stroke="#E2E2E2" stroke-width="0.360703" stroke-miterlimit="10"/>
<path d="M378.578 89.6048L383.172 64.3125" stroke="#E2E2E2" stroke-width="0.360703" stroke-miterlimit="10"/>
<path d="M380.219 89.7973L381.537 64.1133" stroke="#E2E2E2" stroke-width="0.360703" stroke-miterlimit="10"/>
<path d="M447.461 62.5471L487.724 22.2648L491.614 37.9338L525.182 19.3008L485.479 59.4394L481.499 43.4048L447.461 62.5471Z" fill="url(#paint4_linear_40000220_27490)"/>
<path d="M387.766 24.3047C385.299 24.3047 383.289 26.3155 383.289 28.7834V38.681C383.289 41.1488 385.299 43.1597 387.766 43.1597" fill="#090909"/>
<path d="M477.93 -3.5789C484.651 -4.17954 490.368 0.325281 494.57 5.60049C496.919 8.55148 502.205 9.07378 510.545 7.6244C529.6 4.30781 535.825 10.8496 535.825 10.8496L491.973 17.3522C491.973 17.3522 492.338 -1.59416 477.93 -3.5789Z" fill="#090909"/>
<path opacity="0.44" d="M450.203 23.379L455.28 22.6348L463.763 -4.05469H458.987L450.203 23.379Z" fill="white"/>
<path opacity="0.44" d="M444.953 24.1494L447.616 23.7446L456.477 -4.05469H454.089L444.953 24.1494Z" fill="white"/>
<path opacity="0.44" d="M424.457 27.2049L429.534 26.4606L436.543 4.57633V-3.14062L434.272 -2.76196L424.457 27.2049Z" fill="white"/>
<path opacity="0.44" d="M419.219 27.971L421.881 27.5662L431.239 -2.07422L428.616 -1.27771L419.219 27.971Z" fill="white"/>
</g>
<defs>
<linearGradient id="paint0_linear_40000220_27490" x1="375.438" y1="13.8673" x2="504.907" y2="13.8673" gradientUnits="userSpaceOnUse">
<stop offset="0.46" stop-color="#276F67"/>
<stop offset="0.59" stop-color="#2A6862"/>
<stop offset="0.76" stop-color="#345754"/>
<stop offset="0.92" stop-color="#414042"/>
</linearGradient>
<linearGradient id="paint1_linear_40000220_27490" x1="349.405" y1="49.9709" x2="552.51" y2="49.9709" gradientUnits="userSpaceOnUse">
<stop stop-color="#F3F7F4"/>
<stop offset="1" stop-color="#E8DAFA"/>
</linearGradient>
<linearGradient id="paint2_linear_40000220_27490" x1="365.901" y1="27.8764" x2="543.673" y2="27.8764" gradientUnits="userSpaceOnUse">
<stop stop-color="#C353AE"/>
<stop offset="0.74" stop-color="#BA3AA2"/>
</linearGradient>
<linearGradient id="paint3_linear_40000220_27490" x1="436.539" y1="8.52681" x2="442.999" y2="8.52681" gradientUnits="userSpaceOnUse">
<stop stop-color="#C353AE"/>
<stop offset="0.74" stop-color="#BA3AA2"/>
</linearGradient>
<linearGradient id="paint4_linear_40000220_27490" x1="447.461" y1="40.9239" x2="525.182" y2="40.9239" gradientUnits="userSpaceOnUse">
<stop stop-color="#C353AE"/>
<stop offset="0.74" stop-color="#BA3AA2"/>
</linearGradient>
<clipPath id="clip0_40000220_27490">
<rect width="210.727" height="113.273" fill="white" transform="translate(343.152 -16.125)"/>
</clipPath>
</defs>
</svg>
