<svg width="24" height="24" viewBox="0 0 24 24" fill="none" xmlns="http://www.w3.org/2000/svg">
<path d="M12 0.5C18.3513 0.5 23.5 5.64873 23.5 12C23.5 18.3513 18.3513 23.5 12 23.5C5.64873 23.5 0.5 18.3513 0.5 12C0.5 5.64873 5.64873 0.5 12 0.5Z" fill="#FEF3F2"/>
<path d="M12 0.5C18.3513 0.5 23.5 5.64873 23.5 12C23.5 18.3513 18.3513 23.5 12 23.5C5.64873 23.5 0.5 18.3513 0.5 12C0.5 5.64873 5.64873 0.5 12 0.5Z" stroke="#FECDCA"/>
<mask id="mask0_40001875_45844" style="mask-type:alpha" maskUnits="userSpaceOnUse" x="6" y="6" width="12" height="12">
<rect x="6" y="6" width="12" height="12" fill="#D9D9D9"/>
</mask>
<g mask="url(#mask0_40001875_45844)">
<path d="M11.9998 12.5271L9.46326 15.0638C9.39401 15.1329 9.30697 15.1683 9.20214 15.17C9.09739 15.1716 9.00876 15.1362 8.93626 15.0638C8.86385 14.9913 8.82764 14.9034 8.82764 14.8003C8.82764 14.6971 8.86385 14.6093 8.93626 14.5367L11.4729 12.0003L8.93626 9.46375C8.8671 9.3945 8.83168 9.30746 8.83001 9.20263C8.82843 9.09788 8.86385 9.00925 8.93626 8.93675C9.00876 8.86433 9.0966 8.82812 9.19976 8.82812C9.30293 8.82812 9.39076 8.86433 9.46326 8.93675L11.9998 11.4734L14.5363 8.93675C14.6055 8.86758 14.6926 8.83217 14.7974 8.8305C14.9021 8.82892 14.9908 8.86433 15.0633 8.93675C15.1357 9.00925 15.1719 9.09708 15.1719 9.20025C15.1719 9.30342 15.1357 9.39125 15.0633 9.46375L12.5266 12.0003L15.0633 14.5367C15.1324 14.606 15.1678 14.693 15.1695 14.7979C15.1711 14.9026 15.1357 14.9913 15.0633 15.0638C14.9908 15.1362 14.9029 15.1724 14.7998 15.1724C14.6966 15.1724 14.6088 15.1362 14.5363 15.0638L11.9998 12.5271Z" fill="#F04438"/>
</g>
</svg>
