<svg width="48" height="48" viewBox="0 0 48 48" fill="none" xmlns="http://www.w3.org/2000/svg">
<path d="M0 24C0 10.7452 10.7452 0 24 0C37.2548 0 48 10.7452 48 24C48 37.2548 37.2548 48 24 48C10.7452 48 0 37.2548 0 24Z" fill="#FEF3F2"/>
<mask id="mask0_40000451_27332" style="mask-type:alpha" maskUnits="userSpaceOnUse" x="12" y="12" width="24" height="24">
<rect x="12" y="12" width="24" height="24" fill="#D9D9D9"/>
</mask>
<g mask="url(#mask0_40000451_27332)">
<path d="M16.598 32.4619C16.2802 32.5324 16.0065 32.4529 15.777 32.2234C15.5475 31.9939 15.468 31.7202 15.5385 31.4024L16.375 27.3869L20.6135 31.6254L16.598 32.4619ZM20.6135 31.6254L16.375 27.3869L27.5943 16.1676C27.9391 15.8228 28.366 15.6504 28.875 15.6504C29.384 15.6504 29.8109 15.8228 30.1558 16.1676L31.8328 17.8446C32.1776 18.1895 32.35 18.6164 32.35 19.1254C32.35 19.6344 32.1776 20.0613 31.8328 20.4061L20.6135 31.6254ZM28.6635 17.2216L18.4385 27.4369L20.5635 29.5619L30.7788 19.3369C30.8364 19.2792 30.8653 19.2071 30.8653 19.1206C30.8653 19.034 30.8364 18.9618 30.7788 18.9041L29.0963 17.2216C29.0386 17.164 28.9664 17.1351 28.8798 17.1351C28.7933 17.1351 28.7212 17.164 28.6635 17.2216Z" fill="#F04438"/>
</g>
</svg>
