<svg width="24" height="24" viewBox="0 0 24 24" fill="none" xmlns="http://www.w3.org/2000/svg">
<path d="M12 0.5C18.3513 0.5 23.5 5.64873 23.5 12C23.5 18.3513 18.3513 23.5 12 23.5C5.64873 23.5 0.5 18.3513 0.5 12C0.5 5.64873 5.64873 0.5 12 0.5Z" fill="#ECFDF3"/>
<path d="M12 0.5C18.3513 0.5 23.5 5.64873 23.5 12C23.5 18.3513 18.3513 23.5 12 23.5C5.64873 23.5 0.5 18.3513 0.5 12C0.5 5.64873 5.64873 0.5 12 0.5Z" stroke="#ABEFC6"/>
<mask id="mask0_40001875_45834" style="mask-type:alpha" maskUnits="userSpaceOnUse" x="6" y="6" width="12" height="12">
<rect x="6" y="6" width="12" height="12" fill="#D9D9D9"/>
</mask>
<g mask="url(#mask0_40001875_45834)">
<path d="M10.7751 13.7575L15.0944 9.43827C15.1687 9.36385 15.2557 9.32585 15.3554 9.32427C15.455 9.32268 15.5437 9.36068 15.6212 9.43827C15.6988 9.51585 15.7376 9.60493 15.7376 9.70552C15.7376 9.80618 15.6988 9.89531 15.6212 9.97289L11.0915 14.5104C11.0011 14.6007 10.8956 14.6459 10.7751 14.6459C10.6546 14.6459 10.5492 14.6007 10.4588 14.5104L8.37125 12.4229C8.29692 12.3485 8.26025 12.2601 8.26125 12.1579C8.26217 12.0557 8.30142 11.9658 8.379 11.8883C8.45658 11.8107 8.54567 11.7719 8.64625 11.7719C8.74692 11.7719 8.83604 11.8107 8.91363 11.8883L10.7751 13.7575Z" fill="#17B26A"/>
</g>
</svg>
