<svg width="48" height="48" viewBox="0 0 48 48" fill="none" xmlns="http://www.w3.org/2000/svg">
<path d="M0 24C0 10.7452 10.7452 0 24 0C37.2548 0 48 10.7452 48 24C48 37.2548 37.2548 48 24 48C10.7452 48 0 37.2548 0 24Z" fill="#EEF4FF"/>
<mask id="mask0_40000451_27324" style="mask-type:alpha" maskUnits="userSpaceOnUse" x="12" y="12" width="24" height="24">
<rect x="12" y="12" width="24" height="24" fill="#D9D9D9"/>
</mask>
<g mask="url(#mask0_40000451_27324)">
<path d="M24.75 23.6962V19.75C24.75 19.5375 24.6781 19.3593 24.5343 19.2155C24.3904 19.0718 24.2122 19 23.9998 19C23.7871 19 23.609 19.0718 23.4655 19.2155C23.3218 19.3593 23.25 19.5375 23.25 19.75V23.927C23.25 24.0447 23.2718 24.1587 23.3155 24.269C23.359 24.3793 23.4276 24.4813 23.5213 24.575L26.9462 28C27.0846 28.1385 27.2586 28.2093 27.4682 28.2125C27.6779 28.2157 27.8552 28.1448 28 28C28.1448 27.8552 28.2172 27.6795 28.2172 27.473C28.2172 27.2667 28.1448 27.0911 28 26.9462L24.75 23.6962ZM24.0017 33.5C22.6877 33.5 21.4527 33.2507 20.2965 32.752C19.1403 32.2533 18.1347 31.5766 17.2795 30.7218C16.4243 29.8669 15.7472 28.8617 15.2482 27.706C14.7494 26.5503 14.5 25.3156 14.5 24.0017C14.5 22.6877 14.7493 21.4527 15.248 20.2965C15.7467 19.1403 16.4234 18.1347 17.2783 17.2795C18.1331 16.4243 19.1383 15.7472 20.294 15.2482C21.4497 14.7494 22.6844 14.5 23.9983 14.5C25.3123 14.5 26.5473 14.7493 27.7035 15.248C28.8597 15.7467 29.8653 16.4234 30.7205 17.2783C31.5757 18.1331 32.2528 19.1383 32.7518 20.294C33.2506 21.4497 33.5 22.6844 33.5 23.9983C33.5 25.3123 33.2507 26.5473 32.752 27.7035C32.2533 28.8597 31.5766 29.8653 30.7218 30.7205C29.8669 31.5757 28.8617 32.2528 27.706 32.7518C26.5503 33.2506 25.3156 33.5 24.0017 33.5ZM24 32C26.2167 32 28.1042 31.2208 29.6625 29.6625C31.2208 28.1042 32 26.2167 32 24C32 21.7833 31.2208 19.8958 29.6625 18.3375C28.1042 16.7792 26.2167 16 24 16C21.7833 16 19.8958 16.7792 18.3375 18.3375C16.7792 19.8958 16 21.7833 16 24C16 26.2167 16.7792 28.1042 18.3375 29.6625C19.8958 31.2208 21.7833 32 24 32Z" fill="#6172F3"/>
</g>
</svg>
